<svg id="Layer_1" data-name="Layer 1" xmlns="http://www.w3.org/2000/svg" viewBox="0 0 1351.16 921.89"><defs><style>.cls-1{fill:#ececec;}.cls-2{fill:#f0f0f0;}.cls-3{fill:#e0e0e0;}.cls-4{fill:#f5f5f5;}.cls-12,.cls-5{fill:#007cff;}.cls-13,.cls-14,.cls-16,.cls-19,.cls-21,.cls-6,.cls-7,.cls-9{fill:#fff;}.cls-14,.cls-17,.cls-6{opacity:0.6;}.cls-11,.cls-12,.cls-15,.cls-17,.cls-19,.cls-21,.cls-22,.cls-6,.cls-7,.cls-8,.cls-9{isolation:isolate;}.cls-7{opacity:0.7;}.cls-19,.cls-8{opacity:0.3;}.cls-15,.cls-9{opacity:0.4;}.cls-10{fill:#263238;}.cls-13,.cls-21,.cls-22{opacity:0.2;}.cls-18{fill:none;stroke:#007cff;stroke-linecap:round;stroke-linejoin:round;stroke-width:2px;}.cls-20{fill:#fd897b;}</style></defs><title>3d</title><rect class="cls-1" y="799.84" width="1351.16" height="0.68"/><rect class="cls-1" x="1126.27" y="843.34" width="89.51" height="0.68"/><rect class="cls-1" x="871.57" y="850.67" width="23.49" height="0.68"/><rect class="cls-1" x="1071.7" y="818.25" width="51.86" height="0.68"/><rect class="cls-1" x="141.76" y="822.79" width="116.72" height="0.68"/><rect class="cls-1" x="282.54" y="822.79" width="17.11" height="0.68"/><rect class="cls-1" x="355.28" y="834.2" width="253.14" height="0.68"/><rect class="cls-2" x="688.4" y="193.57" width="476.39" height="603.25"/><rect class="cls-3" x="705.24" y="215.56" width="442.71" height="129"/><rect class="cls-1" x="705.24" y="236.44" width="25.15" height="108.11"/><rect class="cls-1" x="826.84" y="236.44" width="25.15" height="108.11"/><rect class="cls-1" x="570.33" y="258.13" width="25.15" height="108.11" transform="translate(359.38 80.5) rotate(-9.78)"/><rect class="cls-1" x="736.4" y="250.69" width="25.15" height="93.87"/><rect class="cls-1" x="794.2" y="250.69" width="25.15" height="93.87"/><rect class="cls-1" x="940.11" y="250.69" width="25.15" height="93.87"/><rect class="cls-1" x="466.42" y="272.12" width="25.15" height="93.87" transform="translate(346.13 88.45) rotate(-12.53)"/><rect class="cls-1" x="770.72" y="231.07" width="12.57" height="113.48"/><rect class="cls-1" x="920.31" y="231.07" width="12.57" height="113.48"/><rect class="cls-3" x="301.31" y="388.02" width="442.71" height="129" transform="translate(1449.26 882) rotate(180)"/><rect class="cls-1" x="718.87" y="408.9" width="25.15" height="108.11" transform="translate(1866.82 902.88) rotate(180)"/><rect class="cls-1" x="597.26" y="408.9" width="25.15" height="108.11" transform="translate(1623.61 902.88) rotate(180)"/><rect class="cls-1" x="449.85" y="407.55" width="25.15" height="108.11" transform="translate(1243.66 972.01) rotate(-170.22)"/><rect class="cls-1" x="687.71" y="423.15" width="25.15" height="93.87" transform="translate(1804.49 917.13) rotate(180)"/><rect class="cls-1" x="629.9" y="423.15" width="25.15" height="93.87" transform="translate(1688.88 917.13) rotate(180)"/><rect class="cls-1" x="484" y="423.15" width="25.15" height="93.87" transform="translate(1397.07 917.13) rotate(180)"/><rect class="cls-1" x="553.75" y="421.54" width="25.15" height="93.87" transform="translate(1421.49 1025.59) rotate(-167.47)"/><rect class="cls-1" x="665.96" y="403.54" width="12.57" height="113.48" transform="translate(1748.43 897.51) rotate(180)"/><rect class="cls-1" x="516.37" y="403.54" width="12.57" height="113.48" transform="translate(1449.26 897.51) rotate(180)"/><rect class="cls-1" x="705.24" y="385.86" width="25.15" height="108.11"/><rect class="cls-1" x="736.4" y="400.11" width="25.15" height="93.87"/><rect class="cls-1" x="794.2" y="400.11" width="25.15" height="93.87"/><rect class="cls-1" x="770.72" y="380.5" width="12.57" height="113.48"/><rect class="cls-3" x="705.24" y="514.4" width="442.71" height="129"/><rect class="cls-1" x="959.34" y="535.29" width="25.15" height="108.11"/><rect class="cls-1" x="702.82" y="556.98" width="25.15" height="108.11" transform="translate(310.55 107.34) rotate(-9.78)"/><rect class="cls-1" x="868.9" y="549.53" width="25.15" height="93.87"/><rect class="cls-1" x="926.7" y="549.53" width="25.15" height="93.87"/><rect class="cls-1" x="1072.61" y="549.53" width="25.15" height="93.87"/><rect class="cls-1" x="598.92" y="570.96" width="25.15" height="93.87" transform="translate(284.46 124.31) rotate(-12.53)"/><rect class="cls-1" x="903.22" y="529.92" width="12.57" height="113.48"/><rect class="cls-1" x="1052.8" y="529.92" width="12.57" height="113.48"/><rect class="cls-1" x="413.49" y="556.98" width="25.15" height="108.11" transform="translate(306.34 58.2) rotate(-9.78)"/><rect class="cls-1" x="783.28" y="549.53" width="25.15" height="93.87"/><rect class="cls-1" x="309.59" y="570.96" width="25.15" height="93.87" transform="translate(277.58 61.55) rotate(-12.53)"/><rect class="cls-1" x="763.47" y="529.92" width="12.57" height="113.48"/><rect class="cls-3" x="141.28" y="157.84" width="352.49" height="18.11"/><rect class="cls-1" x="157.5" y="91.09" width="15.53" height="66.76"/><rect class="cls-1" x="232.59" y="91.09" width="15.53" height="66.76"/><rect class="cls-1" x="-80.31" y="113.29" width="15.53" height="66.76" transform="translate(377.97 -33.23) rotate(-9.78)"/><rect class="cls-1" x="176.75" y="99.88" width="15.53" height="57.96"/><rect class="cls-1" x="212.44" y="99.88" width="15.53" height="57.96"/><rect class="cls-1" x="302.53" y="99.88" width="15.53" height="57.96"/><rect class="cls-1" x="-144.47" y="121.93" width="15.53" height="57.96" transform="translate(367.94 -49.1) rotate(-12.53)"/><rect class="cls-1" x="197.94" y="87.77" width="7.76" height="70.07"/><rect class="cls-1" x="290.3" y="87.77" width="7.76" height="70.07"/><rect class="cls-1" x="384.28" y="105.01" width="75.66" height="52.24"/><rect class="cls-3" x="-262.65" y="316.08" width="352.49" height="18.11" transform="translate(231.11 627.24) rotate(180)"/><rect class="cls-1" x="58.08" y="249.33" width="15.53" height="66.76" transform="translate(535.62 542.37) rotate(180)"/><rect class="cls-1" x="-17.01" y="249.33" width="15.53" height="66.76" transform="translate(385.45 542.37) rotate(180)"/><rect class="cls-1" x="-108.03" y="248.49" width="15.53" height="66.76" transform="translate(156.98 519.58) rotate(-170.22)"/><rect class="cls-1" x="38.84" y="258.12" width="15.53" height="57.96" transform="translate(497.14 551.17) rotate(180)"/><rect class="cls-1" x="3.15" y="258.12" width="15.53" height="57.96" transform="translate(425.75 551.17) rotate(180)"/><rect class="cls-1" x="-86.95" y="258.12" width="15.53" height="57.96" transform="translate(245.57 551.17) rotate(180)"/><rect class="cls-1" x="-43.87" y="257.13" width="15.53" height="57.96" transform="translate(270.51 534.54) rotate(-167.47)"/><rect class="cls-1" x="25.41" y="246.01" width="7.76" height="70.07" transform="translate(462.52 539.06) rotate(180)"/><rect class="cls-1" x="-66.95" y="246.01" width="7.76" height="70.07" transform="translate(277.79 539.06) rotate(180)"/><rect class="cls-1" x="-228.83" y="263.25" width="75.66" height="52.24" transform="translate(21.94 555.69) rotate(180)"/><ellipse id="_Path_" data-name="&lt;Path&gt;" class="cls-4" cx="675.58" cy="891.29" rx="523.95" ry="30.6"/><path class="cls-5" d="M-174.1,855.67s11.64-25.41-1.66-50.46-17.17-31-8.69-36.08,12.38,20,12.38,20,7.15-17.32,1.24-35.44-9.6-47.64-1.54-50.81,1.54,36.83,8.54,50.46c0,0,5.87-15.18,6.84-29.73s-.54-37.8,5.82-43.76,10.45-1.84,4.19,30.28a335.67,335.67,0,0,0-6.21,58.24s13.82-42.14,23.1-43.37,9.26,12.42,1.32,24.25-23.25,33-25.76,44c0,0,15.17-31.71,28.81-22s-11.87,28.87-23.25,35.8-19.27,50.3-19.27,50.3Z" transform="translate(403.93 -23.04)"/><path class="cls-6" d="M-174.1,855.67s11.64-25.41-1.66-50.46-17.17-31-8.69-36.08,12.38,20,12.38,20,7.15-17.32,1.24-35.44-9.6-47.64-1.54-50.81,1.54,36.83,8.54,50.46c0,0,5.87-15.18,6.84-29.73s-.54-37.8,5.82-43.76,10.45-1.84,4.19,30.28a335.67,335.67,0,0,0-6.21,58.24s13.82-42.14,23.1-43.37,9.26,12.42,1.32,24.25-23.25,33-25.76,44c0,0,15.17-31.71,28.81-22s-11.87,28.87-23.25,35.8-19.27,50.3-19.27,50.3Z" transform="translate(403.93 -23.04)"/><path class="cls-5" d="M-164.91,866.09s-11.34-25.58,2.26-50.43,17.54-30.69,9.12-35.95-12.62,19.86-12.62,19.86-6.94-17.43-.82-35.46,10.18-47.49,2.16-50.78-2,36.8-9.14,50.32c0,0-5.7-15.26-6.49-29.82s1-37.79-5.3-43.85-10.42-2-4.55,30.22a336.31,336.31,0,0,1,5.51,58.32s-13.31-42.34-22.57-43.7-9.41,12.27-1.62,24.23,22.86,33.38,25.24,44.33c0,0-14.79-31.94-28.55-22.42s11.53,29,22.82,36.14,18.67,50.58,18.67,50.58Z" transform="translate(403.93 -23.04)"/><path class="cls-7" d="M-164.91,866.09s-11.34-25.58,2.26-50.43,17.54-30.69,9.12-35.95-12.62,19.86-12.62,19.86-6.94-17.43-.82-35.46,10.18-47.49,2.16-50.78-2,36.8-9.14,50.32c0,0-5.7-15.26-6.49-29.82s1-37.79-5.3-43.85-10.42-2-4.55,30.22a336.31,336.31,0,0,1,5.51,58.32s-13.31-42.34-22.57-43.7-9.41,12.27-1.62,24.23,22.86,33.38,25.24,44.33c0,0-14.79-31.94-28.55-22.42s11.53,29,22.82,36.14,18.67,50.58,18.67,50.58Z" transform="translate(403.93 -23.04)"/><polygon class="cls-5" points="186.71 824.82 280.4 824.82 272.82 891.86 194.3 891.86 186.71 824.82"/><rect class="cls-5" x="999.82" y="788.9" width="37.63" height="102.96"/><rect class="cls-8" x="1026.62" y="788.9" width="10.83" height="102.96"/><rect class="cls-5" x="1035.33" y="840.87" width="81.87" height="50.99"/><rect class="cls-9" x="1035.33" y="840.87" width="50.99" height="50.99"/><rect class="cls-5" x="764.55" y="763.66" width="69.12" height="128.2"/><rect class="cls-8" x="792.72" y="763.66" width="40.95" height="128.2"/><rect class="cls-5" x="872.64" y="763.66" width="69.12" height="128.2"/><rect class="cls-8" x="900.81" y="763.66" width="40.95" height="128.2"/><polygon class="cls-5" points="872.85 704.07 821.51 704.07 728.15 763.66 779.5 763.66 914.86 763.66 966.21 763.66 872.85 704.07"/><polygon class="cls-9" points="821.51 704.07 728.15 763.66 779.5 763.66 914.86 763.66 821.51 704.07"/><path class="cls-5" d="M578.69,887.55a27.33,27.33,0,0,1-54.47,3.3,21.28,21.28,0,0,1-.22-3.3,27.35,27.35,0,0,1,44.75-21.1l0,0A27.37,27.37,0,0,1,578.69,887.55Z" transform="translate(403.93 -23.04)"/><path class="cls-9" d="M571.32,877.55a25.43,25.43,0,0,1-47.1,13.3,21.28,21.28,0,0,1-.22-3.3,27.35,27.35,0,0,1,44.75-21.1l0,0A25.43,25.43,0,0,1,571.32,877.55Z" transform="translate(403.93 -23.04)"/><rect class="cls-10" x="599" width="111.78" height="111.78" rx="3.5"/><g class="cls-11"><polygon class="cls-12" points="637.49 25.05 621.7 36.14 621.7 86.73 672.29 86.73 688.08 75.64 688.08 25.05 637.49 25.05"/><rect class="cls-13" x="621.7" y="36.14" width="50.59" height="50.59"/><rect class="cls-13" x="637.49" y="25.05" width="50.59" height="50.59"/><polygon class="cls-14" points="621.7 36.14 637.49 25.05 688.08 25.05 672.29 36.14 621.7 36.14"/><polygon class="cls-8" points="688.08 25.05 688.08 75.64 672.29 86.73 672.29 36.14 688.08 25.05"/><polygon class="cls-8" points="621.7 86.73 637.49 75.64 688.08 75.64 672.29 86.73 621.7 86.73"/></g><rect class="cls-10" x="720.34" width="111.78" height="111.78" rx="3.5"/><g class="cls-11"><g class="cls-11"><path class="cls-5" d="M406.91,48.09c0-.09-.06-.16-.07-.24s0-.13,0-.19-.07-.07-.09-.12a1.2,1.2,0,0,0-.21-.34,1.07,1.07,0,0,0-.14-.16l-.17-.13s-.05-.06-.09-.08a1.19,1.19,0,0,0-.46-.1c-.07,0-.12-.06-.2-.06H354.89a1.36,1.36,0,0,0-.81.25L338.29,58s-.05.09-.09.12a1.64,1.64,0,0,0-.19.25,1.46,1.46,0,0,0-.26.63c0,.06-.07.1-.07.17v50.59c0,.16.12.26.17.4s0,.29.09.42.08,0,.1,0a1.37,1.37,0,0,0,1.07.55H389.7a1.46,1.46,0,0,0,.82-.25L406.3,99.85a1.27,1.27,0,0,0,.11-.13l.13-.14a1.45,1.45,0,0,0,.37-.9ZM391.12,97.25V59.92l5.07-3.56,7.87-5.53V97.25ZM340.53,60.61h12.94V97.94L340.53,107Zm14.81,39.49h32.93v8.24H343.61Zm1-2.85V60.61h31.95V97.25ZM401,49.52l-4.38,3.07-7.35,5.17H356.32V49.52Zm-47.51,1.31v6.93h-9.86Zm37.65,49.27H401L391.12,107Z" transform="translate(403.93 -23.04)"/></g><path class="cls-13" d="M406.84,47.85c0-.07,0-.13,0-.19s-.07-.07-.09-.12a1.2,1.2,0,0,0-.21-.34,1.07,1.07,0,0,0-.14-.16l-.17-.13s-.05-.06-.09-.08a1.19,1.19,0,0,0-.46-.1c-.07,0-.12-.06-.2-.06H354.89a1.36,1.36,0,0,0-.81.25L338.29,58s-.05.09-.09.12a1.64,1.64,0,0,0-.19.25,1.46,1.46,0,0,0-.26.63c0,.06-.07.1-.07.17v50.59c0,.16.12.26.17.4s0,.29.09.42.08,0,.1,0a1.37,1.37,0,0,0,1.07.55H389.7a1.46,1.46,0,0,0,.82-.25L406.3,99.85a1.27,1.27,0,0,0,.11-.13l.13-.14a1.45,1.45,0,0,0,.37-.9V48.09C406.91,48,406.85,47.93,406.84,47.85Zm-53.37,3v6.93h-9.86Zm-12.94,9.78h12.94V97.94L340.53,107Zm47.74,47.73H343.61l11.73-8.24h32.93Zm0-11.09H356.32V60.61h31.95Zm1-39.49H356.32V49.52H401l-4.38,3.07ZM391.12,107V100.1H401Zm12.94-9.78H391.12V59.92l5.07-3.56,7.87-5.53Z" transform="translate(403.93 -23.04)"/></g><rect class="cls-10" x="477.67" width="111.78" height="111.78" rx="3.5"/><polygon class="cls-5" points="516.16 25.05 500.37 36.14 500.37 86.73 550.96 86.73 566.75 75.64 566.75 25.05 516.16 25.05"/><polygon class="cls-14" points="500.37 36.14 516.16 25.05 566.75 25.05 550.96 36.14 500.37 36.14"/><polygon class="cls-8" points="566.75 25.05 566.75 75.64 550.96 86.73 550.96 36.14 566.75 25.05"/><polygon class="cls-13" points="516.16 25.05 500.37 36.14 500.37 86.73 550.96 86.73 566.75 75.64 566.75 25.05 516.16 25.05"/><path class="cls-5" d="M807.46,557l.84-.35H60.58l-.85.35h-1L-250.92,686.5h1l-.84.35H496.92l.85-.35h1L808.43,557Zm-45,18.16h-65.4l42.55-17.8h65.4Zm-631,37.71h65.4l-42.55,17.8H88.93Zm-45.07,17.8H21l42.55-17.8H129Zm315.93-18.5h-65.4l42.55-17.8h65.4Zm45.07-17.8h65.4l-42.55,17.8h-65.4Zm-180.09,18.5h65.41l-42.55,17.8h-65.4Zm-45.06,17.8H156.85l42.55-17.8h65.4Zm113-17.8h65.4l-42.55,17.8H292.7Zm-.83-.7H269l42.55-17.8H377Zm-67.92,0H201.09l42.55-17.8h65.41Zm-67.93,0h-65.4l42.55-17.8h65.4Zm-45.93,19.21-42.55,17.79H44.69l42.55-17.79Zm2.52,0h65.4L178,649.13h-65.4Zm67.92,0h65.41l-42.55,17.79H180.53Zm67.93,0h65.4l-42.55,17.79h-65.4Zm67.92,0h65.4l-42.55,17.79h-65.4Zm1.69-.71,42.55-17.8h65.4L426,630.63Zm110.47-17.8h65.4l-42.55,17.8h-65.4Zm1.69-.7,42.55-17.8h65.4l-42.55,17.8ZM517,593.62l42.55-17.8H625l-42.54,17.8Zm-2.52,0H449.1l42.55-17.8h65.4Zm-67.92,0h-65.4l42.55-17.8h65.4Zm-67.92,0h-65.4l42.55-17.8h65.4Zm-67.92,0h-65.4l42.54-17.8h65.41Zm-67.92,0h-65.4L220,575.82h65.4Zm-67.92,0H109.49L152,575.82h65.4Zm-1.7.71-42.55,17.8H65.25l42.55-17.8ZM62.73,612.13H-2.67l42.55-17.8h65.4Zm-1.69.7-42.55,17.8h-65.4l42.55-17.8ZM16.8,631.34l-42.55,17.79h-65.4l42.55-17.79Zm2.52,0h65.4L42.17,649.13h-65.4Zm21.16,18.5-42.55,17.8h-65.4l42.55-17.8Zm2.52,0h65.4l-42.55,17.8H.45Zm67.92,0h65.4l-42.55,17.8H68.37Zm67.92,0h65.4l-42.54,17.8H136.29Zm67.92,0h65.41l-42.55,17.8h-65.4Zm67.93,0h65.4l-42.55,17.8h-65.4Zm67.92,0H448l-42.55,17.8h-65.4Zm1.69-.71,42.55-17.79h65.4L449.7,649.13Zm110.47-17.79h65.4l-42.55,17.79h-65.4Zm1.69-.71L539,612.83h65.4l-42.54,17.8Zm44.24-18.5,42.55-17.8h65.41l-42.55,17.8ZM585,593.62l42.54-17.8H692.9l-42.55,17.8Zm44.24-18.5,42.55-17.8h65.4l-42.55,17.8Zm-2.52,0h-65.4l42.54-17.8h65.41Zm-67.93,0h-65.4l42.55-17.8h65.4Zm-67.92,0h-65.4L468,557.32h65.4Zm-67.92,0H357.5l42.55-17.8h65.4Zm-67.92,0h-65.4l42.55-17.8h65.4Zm-67.92,0h-65.4l42.55-17.8h65.4Zm-67.92,0H153.73l42.55-17.8h65.41Zm-67.93,0H85.81l42.55-17.8h65.4Zm-1.69.7L107,593.62H41.57l42.55-17.8ZM39.05,593.62h-65.4l42.55-17.8H81.6Zm-1.69.71-42.55,17.8h-65.4L-28,594.33Zm-44.24,18.5-42.55,17.8h-65.4l42.54-17.8Zm-44.24,18.51-42.55,17.79h-65.41l42.55-17.79Zm-44.25,18.5-42.54,17.8h-65.41l42.55-17.8Zm2.52,0h65.41L-70,667.64h-65.4Zm21.17,18.51-42.55,17.79h-65.41l42.55-17.79Zm2.52,0h65.4l-42.55,17.79h-65.4Zm67.92,0h65.4L21.61,686.14h-65.4Zm67.92,0h65.4L89.53,686.14H24.13Zm67.92,0H200l-42.55,17.79H92.05Zm67.92,0h65.4l-42.54,17.79H160Zm67.93,0h65.4L293.3,686.14H227.9Zm67.92,0h65.4l-42.55,17.79h-65.4Zm67.92,0h65.4l-42.55,17.79h-65.4Zm1.69-.71,42.55-17.8h65.4l-42.55,17.8Zm110.47-17.8h65.4l-42.54,17.8H475.9Zm1.69-.71,42.55-17.79H628.1l-42.55,17.79Zm44.25-18.5,42.54-17.8h65.41l-42.55,17.8Zm44.24-18.5,42.55-17.8h65.4L674,612.13Zm44.24-18.51,42.55-17.8h65.4l-42.55,17.8Zm-527-36.3-42.55,17.8H17.89l42.55-17.8ZM-205,668.35h65.4l-42.55,17.79h-65.4Zm636.67,17.79,42.55-17.79h65.4l-42.55,17.79Z" transform="translate(403.93 -23.04)"/><g class="cls-15"><path class="cls-16" d="M807.46,557l.84-.35H60.58l-.85.35h-1L-250.92,686.5h1l-.84.35H496.92l.85-.35h1L808.43,557Zm-45,18.16h-65.4l42.55-17.8h65.4Zm-631,37.71h65.4l-42.55,17.8H88.93Zm-45.07,17.8H21l42.55-17.8H129Zm315.93-18.5h-65.4l42.55-17.8h65.4Zm45.07-17.8h65.4l-42.55,17.8h-65.4Zm-180.09,18.5h65.41l-42.55,17.8h-65.4Zm-45.06,17.8H156.85l42.55-17.8h65.4Zm113-17.8h65.4l-42.55,17.8H292.7Zm-.83-.7H269l42.55-17.8H377Zm-67.92,0H201.09l42.55-17.8h65.41Zm-67.93,0h-65.4l42.55-17.8h65.4Zm-45.93,19.21-42.55,17.79H44.69l42.55-17.79Zm2.52,0h65.4L178,649.13h-65.4Zm67.92,0h65.41l-42.55,17.79H180.53Zm67.93,0h65.4l-42.55,17.79h-65.4Zm67.92,0h65.4l-42.55,17.79h-65.4Zm1.69-.71,42.55-17.8h65.4L426,630.63Zm110.47-17.8h65.4l-42.55,17.8h-65.4Zm1.69-.7,42.55-17.8h65.4l-42.55,17.8ZM517,593.62l42.55-17.8H625l-42.54,17.8Zm-2.52,0H449.1l42.55-17.8h65.4Zm-67.92,0h-65.4l42.55-17.8h65.4Zm-67.92,0h-65.4l42.55-17.8h65.4Zm-67.92,0h-65.4l42.54-17.8h65.41Zm-67.92,0h-65.4L220,575.82h65.4Zm-67.92,0H109.49L152,575.82h65.4Zm-1.7.71-42.55,17.8H65.25l42.55-17.8ZM62.73,612.13H-2.67l42.55-17.8h65.4Zm-1.69.7-42.55,17.8h-65.4l42.55-17.8ZM16.8,631.34l-42.55,17.79h-65.4l42.55-17.79Zm2.52,0h65.4L42.17,649.13h-65.4Zm21.16,18.5-42.55,17.8h-65.4l42.55-17.8Zm2.52,0h65.4l-42.55,17.8H.45Zm67.92,0h65.4l-42.55,17.8H68.37Zm67.92,0h65.4l-42.54,17.8H136.29Zm67.92,0h65.41l-42.55,17.8h-65.4Zm67.93,0h65.4l-42.55,17.8h-65.4Zm67.92,0H448l-42.55,17.8h-65.4Zm1.69-.71,42.55-17.79h65.4L449.7,649.13Zm110.47-17.79h65.4l-42.55,17.79h-65.4Zm1.69-.71L539,612.83h65.4l-42.54,17.8Zm44.24-18.5,42.55-17.8h65.41l-42.55,17.8ZM585,593.62l42.54-17.8H692.9l-42.55,17.8Zm44.24-18.5,42.55-17.8h65.4l-42.55,17.8Zm-2.52,0h-65.4l42.54-17.8h65.41Zm-67.93,0h-65.4l42.55-17.8h65.4Zm-67.92,0h-65.4L468,557.32h65.4Zm-67.92,0H357.5l42.55-17.8h65.4Zm-67.92,0h-65.4l42.55-17.8h65.4Zm-67.92,0h-65.4l42.55-17.8h65.4Zm-67.92,0H153.73l42.55-17.8h65.41Zm-67.93,0H85.81l42.55-17.8h65.4Zm-1.69.7L107,593.62H41.57l42.55-17.8ZM39.05,593.62h-65.4l42.55-17.8H81.6Zm-1.69.71-42.55,17.8h-65.4L-28,594.33Zm-44.24,18.5-42.55,17.8h-65.4l42.54-17.8Zm-44.24,18.51-42.55,17.79h-65.41l42.55-17.79Zm-44.25,18.5-42.54,17.8h-65.41l42.55-17.8Zm2.52,0h65.41L-70,667.64h-65.4Zm21.17,18.51-42.55,17.79h-65.41l42.55-17.79Zm2.52,0h65.4l-42.55,17.79h-65.4Zm67.92,0h65.4L21.61,686.14h-65.4Zm67.92,0h65.4L89.53,686.14H24.13Zm67.92,0H200l-42.55,17.79H92.05Zm67.92,0h65.4l-42.54,17.79H160Zm67.93,0h65.4L293.3,686.14H227.9Zm67.92,0h65.4l-42.55,17.79h-65.4Zm67.92,0h65.4l-42.55,17.79h-65.4Zm1.69-.71,42.55-17.8h65.4l-42.55,17.8Zm110.47-17.8h65.4l-42.54,17.8H475.9Zm1.69-.71,42.55-17.79H628.1l-42.55,17.79Zm44.25-18.5,42.54-17.8h65.41l-42.55,17.8Zm44.24-18.5,42.55-17.8h65.4L674,612.13Zm44.24-18.51,42.55-17.8h65.4l-42.55,17.8Zm-527-36.3-42.55,17.8H17.89l42.55-17.8ZM-205,668.35h65.4l-42.55,17.79h-65.4Zm636.67,17.79,42.55-17.79h65.4l-42.55,17.79Z" transform="translate(403.93 -23.04)"/></g><path class="cls-5" d="M564.88,33.85a92.75,92.75,0,1,0,92.75,92.75A92.85,92.85,0,0,0,564.88,33.85Zm87.28,90H578.35l68.1-28.48A86.93,86.93,0,0,1,652.16,123.89Zm-7.81-33.46-76.76,32.11V39.32A87.46,87.46,0,0,1,644.35,90.43ZM562.18,39.32v84.57H477.61A87.42,87.42,0,0,1,562.18,39.32Zm-10.75,90-68.11,28.48a86.93,86.93,0,0,1-5.71-28.48Zm-66,33.47,76.76-32.11v83.21A87.46,87.46,0,0,1,485.42,162.77Zm82.17,51.1V129.3h84.57A87.42,87.42,0,0,1,567.59,213.87Z" transform="translate(403.93 -23.04)"/><g class="cls-17"><path class="cls-16" d="M564.88,33.85a92.75,92.75,0,1,0,92.75,92.75A92.85,92.85,0,0,0,564.88,33.85Zm87.28,90H578.35l68.1-28.48A86.93,86.93,0,0,1,652.16,123.89Zm-7.81-33.46-76.76,32.11V39.32A87.46,87.46,0,0,1,644.35,90.43ZM562.18,39.32v84.57H477.61A87.42,87.42,0,0,1,562.18,39.32Zm-10.75,90-68.11,28.48a86.93,86.93,0,0,1-5.71-28.48Zm-66,33.47,76.76-32.11v83.21A87.46,87.46,0,0,1,485.42,162.77Zm82.17,51.1V129.3h84.57A87.42,87.42,0,0,1,567.59,213.87Z" transform="translate(403.93 -23.04)"/></g><polygon class="cls-5" points="968.82 0 962.47 17.77 975.16 17.77 968.82 0"/><polygon class="cls-5" points="1072.37 103.56 1054.61 97.21 1054.61 109.9 1072.37 103.56"/><polygon class="cls-5" points="874.2 143.72 893.03 142.53 888.01 130.87 874.2 143.72"/><line class="cls-18" x1="968.82" y1="103.55" x2="885.74" y2="138.31"/><line class="cls-18" x1="968.82" y1="13.51" x2="968.82" y2="103.55"/><line class="cls-18" x1="1058.86" y1="103.55" x2="968.82" y2="103.55"/><rect class="cls-5" x="1081.7" y="344.08" width="122.15" height="31.24" rx="2.8"/><rect class="cls-9" x="1081.7" y="344.08" width="122.15" height="31.24" rx="2.8"/><rect class="cls-5" x="1081.7" y="380.27" width="122.15" height="31.24" rx="2.8"/><rect class="cls-9" x="1081.7" y="380.27" width="122.15" height="31.24" rx="2.8"/><rect class="cls-5" x="1081.7" y="416.45" width="122.15" height="31.24" rx="2.8"/><rect class="cls-9" x="1081.7" y="416.45" width="122.15" height="31.24" rx="2.8"/><rect class="cls-5" x="1081.7" y="452.64" width="122.15" height="31.24" rx="2.8"/><rect class="cls-9" x="1081.7" y="452.64" width="122.15" height="31.24" rx="2.8"/><rect class="cls-5" x="1081.7" y="488.82" width="122.15" height="31.24" rx="2.8"/><rect class="cls-9" x="1081.7" y="488.82" width="122.15" height="31.24" rx="2.8"/><rect class="cls-5" x="1110.61" width="93.24" height="266.95" rx="1.56"/><rect class="cls-9" x="1121.55" y="10.57" width="32.34" height="32.34" rx="1.38"/><rect class="cls-9" x="1160.57" y="10.57" width="32.34" height="32.34" rx="1.38"/><rect class="cls-9" x="1121.55" y="48.4" width="32.34" height="32.34" rx="1.38"/><rect class="cls-9" x="1160.57" y="48.4" width="32.34" height="32.34" rx="1.38"/><rect class="cls-9" x="1121.55" y="86.23" width="32.34" height="32.34" rx="1.38"/><rect class="cls-9" x="1160.57" y="86.23" width="32.34" height="32.34" rx="1.38"/><rect class="cls-9" x="1121.55" y="124.06" width="32.34" height="32.34" rx="1.38"/><rect class="cls-9" x="1160.57" y="124.06" width="32.34" height="32.34" rx="1.38"/><rect class="cls-9" x="1121.55" y="224.05" width="32.34" height="32.34" rx="1.38"/><rect class="cls-9" x="1160.57" y="224.05" width="32.34" height="32.34" rx="1.38"/><rect class="cls-9" x="1121.55" y="186.22" width="32.34" height="32.34" rx="1.38"/><rect class="cls-9" x="1160.57" y="186.22" width="32.34" height="32.34" rx="1.38"/><path class="cls-5" d="M326.65,428.57c-35.46-48.24-80-75.76-99.44-61.46L138,432.66c-19.46,14.3-6.49,65,29,113.25s80,75.76,99.44,61.46l89.18-65.55C375.08,527.52,362.11,476.82,326.65,428.57Z" transform="translate(403.93 -23.04)"/><ellipse class="cls-9" cx="291.42" cy="454.47" rx="43.73" ry="108.41" transform="translate(191.38 237.83) rotate(-36.32)"/><path class="cls-5" d="M220.19,506.82c-17.73-24.12-40-37.88-49.72-30.73L55.82,560.36c-9.73,7.15-3.24,32.51,14.49,56.63s40,37.88,49.72,30.73l114.65-84.27C244.41,556.3,237.92,530.94,220.19,506.82Z" transform="translate(403.93 -23.04)"/><path class="cls-8" d="M234.66,563.44,203.83,586.1a254,254,0,0,1-64.2-87.34l30.83-22.66c9.74-7.15,32,6.58,49.73,30.71S244.39,556.29,234.66,563.44Z" transform="translate(403.93 -23.04)"/><ellipse class="cls-19" cx="202.58" cy="519.77" rx="21.86" ry="54.21" transform="translate(135.45 197.9) rotate(-36.32)"/><path class="cls-8" d="M120,647.72c-9.73,7.15-32-6.61-49.72-30.73s-24.22-49.48-14.49-56.63,32,6.61,49.72,30.73S129.75,640.57,120,647.72Z" transform="translate(403.93 -23.04)"/><ellipse class="cls-8" cx="202.24" cy="520.01" rx="43.73" ry="108.41" transform="translate(135.24 197.75) rotate(-36.32)"/><path class="cls-5" d="M400.85,374c-61.23-83.3-138.1-130.82-171.7-106.12l-49.43,36.34c-33.6,24.69-11.2,112.24,50,195.55s138.1,130.81,171.7,106.12l49.44-36.34C484.48,544.89,462.08,457.33,400.85,374Z" transform="translate(403.93 -23.04)"/><ellipse class="cls-8" cx="290.58" cy="455.08" rx="75.5" ry="187.2" transform="translate(190.85 237.45) rotate(-36.32)"/><ellipse class="cls-9" cx="340.02" cy="418.75" rx="75.5" ry="187.2" transform="translate(221.98 259.67) rotate(-36.32)"/><path class="cls-5" d="M474.43,320c-35.47-48.24-80-75.76-99.44-61.45L285.81,324c-19.46,14.3-6.48,65,29,113.25s80,75.76,99.44,61.46l89.17-65.54C522.86,418.9,509.89,368.2,474.43,320Z" transform="translate(403.93 -23.04)"/><ellipse class="cls-8" cx="350.02" cy="411.4" rx="43.73" ry="108.41" transform="translate(228.27 264.17) rotate(-36.32)"/><ellipse class="cls-9" cx="439.19" cy="345.85" rx="43.73" ry="108.41" transform="translate(284.41 304.25) rotate(-36.32)"/><g id="_Group_" data-name="&lt;Group&gt;"><path class="cls-20" d="M-88,270.46s-36.48,63.94-39.19,79.26S-96.07,463-96.07,463s-7.43,25.79.68,30.12,22.27,13.12,24.31,5.68,0-31.94,0-31.94l-6.09-5.21s-21.54-102.36-21.57-105.9,39.21-63.91,39.21-63.91Z" transform="translate(403.93 -23.04)"/><path class="cls-5" d="M-65.59,227.22c-19,8.24-66.92,87.57-66.46,121.6s28.25,91.06,28.25,91.06l21.23-4s-7.79-80.36-5.24-90.86,33.41-52.74,33.41-52.74Z" transform="translate(403.93 -23.04)"/><path class="cls-21" d="M-87.81,345c-2.54,10.49,5.24,90.85,5.24,90.85l-21.21,4s-27.81-57-28.27-91.06,47.51-113.37,66.48-121.61l9.1,53,2.08,12.08S-70.95,315-80.81,331.2C-84.44,337.14-87.14,342.22-87.81,345Z" transform="translate(403.93 -23.04)"/><path class="cls-22" d="M-54.39,292.28S-70.95,315-80.81,331.2c-1.68-24.59,10.56-53.27,15.24-63.24,1.08-2.29,1.75-3.62,1.75-3.62l7.35,15.86Z" transform="translate(403.93 -23.04)"/><polygon class="cls-20" points="450.46 871.74 472.38 874.03 473.49 861.33 476.49 826.77 454.57 824.45 451.25 862.63 450.46 871.74"/><polygon class="cls-20" points="341.07 868.95 362.31 868.95 362.5 864.14 362.53 863.55 363.61 832.74 363.64 832.12 364.07 820.31 342.8 820.31 341.07 868.95"/><polygon class="cls-22" points="454.57 824.45 451.25 862.63 473.49 861.33 476.49 826.77 454.57 824.45"/><polygon class="cls-22" points="341.21 866.25 341.24 866.25 362.5 863.55 362.53 863.55 363.64 833.82 363.61 833.82 342.32 835.52 341.24 865.32 341.21 866.25"/><path class="cls-10" d="M-38.67,890.71H-64.48a1.87,1.87,0,0,0-1.81,1.46l-4.19,18.92a3.13,3.13,0,0,0,2.42,3.71,2.7,2.7,0,0,0,.69.07c8.35-.13,14.43-.65,24.91-.65,6.46,0,26,.68,34.86.68s10.08-8.81,6.44-9.62c-16.38-3.57-28.7-8.51-33.94-13.21A5.14,5.14,0,0,0-38.67,890.71Z" transform="translate(403.93 -23.04)"/><path class="cls-10" d="M70.77,890H45a1.86,1.86,0,0,0-1.81,1.46L39,910.41a3.13,3.13,0,0,0,2.41,3.72,3.23,3.23,0,0,0,.69.07c8.35-.14,14.43-.65,24.92-.65,6.46,0,25.94.67,34.86.67s10.08-8.81,6.43-9.62c-16.38-3.56-28.7-8.51-33.94-13.21A5.12,5.12,0,0,0,70.77,890Z" transform="translate(403.93 -23.04)"/><path class="cls-10" d="M74.57,881.18H43.41S46,613,12.25,522.38c-2.37,29.94-5,61-7.67,86.9-1.65,16-3.27,29.79-4.81,40.28C-10,717.12-34.79,883.89-34.79,883.89H-65.57s3.65-159.81,7.29-226.2c4-72.07,5.76-230.5,5.92-244H60.38C71.11,470.43,98.62,697.43,74.57,881.18Z" transform="translate(403.93 -23.04)"/><path class="cls-20" d="M19.44,175.53c-.26,1-.56,2-.91,3A29.57,29.57,0,0,1,8,192.54a31.16,31.16,0,0,1-3.85,2.38,26.78,26.78,0,0,1-23,1,27.13,27.13,0,0,1-8.78-6.07C-38.27,179.11-38,166.7-39.19,145.69A28.57,28.57,0,0,1-37,132.47,28.76,28.76,0,0,1,.56,117C21.17,125.36,24,156.62,19.44,175.53Z" transform="translate(403.93 -23.04)"/><path class="cls-22" d="M8,192.54a31.16,31.16,0,0,1-3.85,2.38,26.78,26.78,0,0,1-23,1,31.31,31.31,0,0,1,3.76-7.13S-2.54,186.87,8,192.54Z" transform="translate(403.93 -23.04)"/><path class="cls-20" d="M-34.27,219.79c10.35,9.4,35.71,5.93,35.71,5.93s15.83-4.34,12.5-9.28C4.62,214.9.11,210.55-1.76,205a27.07,27.07,0,0,1-.94-10.65,54.89,54.89,0,0,1,.78-5.94l-31.35-23.21C-29.16,180.5-24.13,208.68-34.27,219.79Z" transform="translate(403.93 -23.04)"/><path class="cls-10" d="M-5.41,107.89s13.65-5.73,23.13,3.21c8,7.53,2.8,19.15,7.64,28.81s-12.64,16-12.64,16S8.11,165.8.09,165.18c0,0-6.55,7.92-5.5,16.12S-16.13,196-32.17,195.76s-9.62-10.22-9.62-10.22-5.85-6-11.12-18-4.56-25.12-4.56-25.12-1.43-12.26,9.27-24.3S-12,100.05-5.41,107.89Z" transform="translate(403.93 -23.04)"/><path class="cls-20" d="M-3.92,157.9c1.25,4.57,3.77,7.93,7,9.34,4.28,1.81,7.09-4.22,6.47-10.53-.59-5.6-3.49-13.48-8.07-12.44S-5.42,152.25-3.92,157.9Z" transform="translate(403.93 -23.04)"/><path class="cls-22" d="M12.25,522.26c-2.37,29.94-5,61.07-7.67,87C.74,571.85-4,545.2-4,545.2s-4.41-3.62-16.51-22.94,0-55.4,0-55.4C-20.85,500.37,12.25,522.26,12.25,522.26Z" transform="translate(403.93 -23.04)"/><polygon class="cls-5" points="481.99 849.36 480.47 858.14 443.65 858.14 443.65 850.04 481.99 849.36"/><polygon class="cls-5" points="372.67 852.74 369.14 860.85 338.26 860.85 336.24 852.74 372.67 852.74"/><polygon class="cls-5" points="350.56 409.13 350.56 425.7 468.69 417.41 468.69 402.72 350.56 409.13"/><polygon class="cls-21" points="350.56 409.13 350.56 425.7 468.69 417.41 468.69 402.72 350.56 409.13"/><path class="cls-5" d="M70.52,418.48a11.18,11.18,0,0,1-10.62,12l-110.85,5.41a6.26,6.26,0,0,1-6.6-6.22c-.7-67.47-23.8-190.21-8-202.43C-49.25,214.59,30.82,208,30.82,208A269.41,269.41,0,0,1,40.63,235c.35,1.16.73,2.33,1,3.51,4.6,15.19,8.46,31.57,11.78,48.16.25,1.11.46,2.24.68,3.35C64.3,342.28,68.89,395.7,70.52,418.48Z" transform="translate(403.93 -23.04)"/><path class="cls-9" d="M70.52,418.48a11.18,11.18,0,0,1-10.62,12l-110.85,5.41a6.26,6.26,0,0,1-6.6-6.22c-.7-67.47-23.8-190.21-8-202.43C-49.25,214.59,30.82,208,30.82,208A269.41,269.41,0,0,1,40.63,235c.35,1.16.73,2.33,1,3.51,4.6,15.19,8.46,31.57,11.78,48.16.25,1.11.46,2.24.68,3.35C64.3,342.28,68.89,395.7,70.52,418.48Z" transform="translate(403.93 -23.04)"/><path class="cls-5" d="M9.62,210.14s-12.23-9.61-35.2-9.1-25.22,9.1-25.22,9.1-25.23,12.58-5.41,33.3S2.62,211.65,2.62,211.65Z" transform="translate(403.93 -23.04)"/><path class="cls-21" d="M9.62,210.14s-12.23-9.61-35.2-9.1-25.22,9.1-25.22,9.1-25.23,12.58-5.41,33.3S2.62,211.65,2.62,211.65Z" transform="translate(403.93 -23.04)"/><path class="cls-22" d="M53.46,286.69C36.14,263.8,35,239.53,35,239.53l6.65-1C46.28,253.72,50.14,270.1,53.46,286.69Z" transform="translate(403.93 -23.04)"/><path class="cls-20" d="M45.29,208.47s80-16.36,91.27-20.65,70.71-61.16,70.71-61.16l13,9.84S175.74,194.34,153.45,211,53.12,252.87,53.12,252.87Z" transform="translate(403.93 -23.04)"/><path class="cls-20" d="M207.27,126.66c6.41-7.31,29.78-23.13,33.16-24.49s8.41,19.32,7.4,22-12.47,8.44-18.24,9.12-12,6.59-12,6.59Z" transform="translate(403.93 -23.04)"/><path class="cls-5" d="M30.81,208s-1.08,37.69,17.77,56.37c0,0,67.52-19.8,103.85-44.39s50.89-62.2,50.89-62.2-6.3-11.86-14.7-13.58c0,0-48.49,39-75.22,44.3s-85,19.5-85,19.5" transform="translate(403.93 -23.04)"/><path class="cls-21" d="M30.81,208s-1.08,37.69,17.77,56.37c0,0,67.52-19.8,103.85-44.39s50.89-62.2,50.89-62.2-6.3-11.86-14.7-13.58c0,0-48.49,39-75.22,44.3s-85,19.5-85,19.5" transform="translate(403.93 -23.04)"/><polygon class="cls-5" points="591.49 121.98 596.44 114.87 612.48 133.04 606.22 137.13 591.49 121.98"/><polygon class="cls-5" points="298.88 414.21 320.84 407.34 322.96 414.21 298.88 421.96 298.88 414.21"/></g></svg>