<svg xmlns="http://www.w3.org/2000/svg" viewBox="0 0 1702.21 1678.54"><defs><style>.cls-1{isolation:isolate;}.cls-13,.cls-2,.cls-3{fill:none;}.cls-10,.cls-11,.cls-2,.cls-3,.cls-8,.cls-9{stroke:#000e33;}.cls-10,.cls-11,.cls-13,.cls-2,.cls-3,.cls-8,.cls-9{stroke-linecap:round;stroke-linejoin:round;}.cls-10,.cls-11,.cls-13,.cls-2,.cls-8,.cls-9{stroke-width:1.5px;}.cls-3{stroke-width:3px;}.cls-4{fill:#ffcbd3;}.cls-5,.cls-9{fill:#fff;}.cls-6{fill:#00d0bf;}.cls-7{fill:#8492ff;}.cls-14,.cls-8{fill:#000e33;}.cls-10{fill:#fddd8d;}.cls-11{fill:#d1d1d7;}.cls-12{opacity:0.45;mix-blend-mode:multiply;}.cls-13{stroke:#8492ff;}.cls-14{font-size:94.75px;font-family:D-DIN-Bold, D DIN-Bold;font-weight:700;}</style></defs><title>mobile</title><g class="cls-1"><g id="Layer_1" data-name="Layer 1"><line class="cls-2" x1="127.49" y1="85.16" x2="98.14" y2="129.18"/><line class="cls-2" x1="1422.85" y1="503.26" x2="1464.34" y2="536.1"/><line class="cls-2" x1="30.65" y1="810.89" x2="53.65" y2="858.54"/><line class="cls-2" x1="951.05" y1="1644.95" x2="992.53" y2="1677.79"/><line class="cls-2" x1="1616.75" y1="1428.34" x2="1628.71" y2="1479.88"/><line class="cls-2" x1="1327.87" y1="0.75" x2="1304.55" y2="48.24"/><line class="cls-2" x1="77.29" y1="1613.88" x2="53.96" y2="1661.37"/><path class="cls-2" d="M-268.82-279.56a11.74,11.74,0,0,0-11.74-11.74,11.74,11.74,0,0,0-11.74,11.74,11.74,11.74,0,0,0,11.74,11.74A11.74,11.74,0,0,0-268.82-279.56Z" transform="translate(472.62 583.38)"/><path class="cls-2" d="M-407,716.1a11.74,11.74,0,0,0-11.74-11.74,11.74,11.74,0,0,0-11.74,11.74,11.74,11.74,0,0,0,11.74,11.74A11.73,11.73,0,0,0-407,716.1Z" transform="translate(472.62 583.38)"/><circle class="cls-2" cx="419.62" cy="1664.25" r="11.74"/><path class="cls-2" d="M1197.27,58.71a11.74,11.74,0,1,0-11.74,11.74A11.75,11.75,0,0,0,1197.27,58.71Z" transform="translate(472.62 583.38)"/><path class="cls-2" d="M1096,1042.5a11.74,11.74,0,1,0-11.74,11.74A11.74,11.74,0,0,0,1096,1042.5Z" transform="translate(472.62 583.38)"/><path class="cls-2" d="M574.45-558.89a11.74,11.74,0,0,0-11.74-11.74A11.74,11.74,0,0,0,551-558.89a11.75,11.75,0,0,0,11.74,11.75A11.75,11.75,0,0,0,574.45-558.89Z" transform="translate(472.62 583.38)"/><line class="cls-3" x1="1700.71" y1="980.48" x2="1700.71" y2="980.48"/><line class="cls-3" x1="98.14" y1="1154.84" x2="98.14" y2="1154.84"/><line class="cls-3" x1="297.3" y1="56.44" x2="297.3" y2="56.44"/><line class="cls-3" x1="1.5" y1="561.48" x2="1.5" y2="561.48"/><line class="cls-3" x1="1362.12" y1="1675.99" x2="1362.12" y2="1675.99"/><line class="cls-3" x1="1658.15" y1="56.44" x2="1658.15" y2="56.44"/><path class="cls-4" d="M-242.52-98.51c-82,319.83,36.27,1064,673.74,1123.34s852.71-450.15,638.88-693.62S587,109.21,546.82-259.49-100.5-652.57-242.52-98.51Z" transform="translate(472.62 583.38)"/><rect class="cls-5" x="562.44" y="432.38" width="651.19" height="1077.74" rx="10.64"/><path class="cls-6" d="M55-40.84C-15.42-54.53-61.41-121.06-46.73-192.48s-86.1-139.91-46-228.94,173.18-24.46,217.2,124.25S146-66.27,146-66.27Z" transform="translate(472.62 583.38)"/><path class="cls-2" d="M-5.64-356.85S86.25-256.35,98-52.85" transform="translate(472.62 583.38)"/><path class="cls-2" d="M209.6-284.61s4.89,42.23-13.7,95.06" transform="translate(472.62 583.38)"/><path class="cls-2" d="M-61.2-52.85S-14.52-15.4,46.17-18.33" transform="translate(472.62 583.38)"/><path class="cls-6" d="M658,540.55C735,537.87,842.12,503,906.69,403S1068.12,286.59,1074,214.84,969.12,82.08,823.44,180.09,602.91,362.87,602.91,362.87Z" transform="translate(472.62 583.38)"/><path class="cls-2" d="M631.8,456.12c165.8-46.9,220.59-201.3,318.43-224.88" transform="translate(472.62 583.38)"/><path class="cls-7" d="M668.49,755.8c53.29-16.14,108.32-13.2,142.81,3.67s67.43,3.4,45.49-37.42C830.38,672.89,738.66,670,674.08,694.9Z" transform="translate(472.62 583.38)"/><path class="cls-2" d="M668.49,785.15s57,21.28,116.39,6.61" transform="translate(472.62 583.38)"/><path class="cls-7" d="M122.57,857.1s12.9,83.27,63.55,114.43c38.16,23.49,65.31-13.2,36-44.79-27.16-29.23-38.16-56.11-34.49-84.17Z" transform="translate(472.62 583.38)"/><path class="cls-2" d="M250,842.57s-11.25,32.11,20.79,74.66" transform="translate(472.62 583.38)"/><path class="cls-6" d="M-7.51,435C-77.06,334.86-333.4,378.69-345.14,261.87S-129.89,98.36,77.52,223V456.12Z" transform="translate(472.62 583.38)"/><path class="cls-2" d="M-265.46,270s237.32,4.51,343,77.74" transform="translate(472.62 583.38)"/><rect class="cls-8" x="525.35" y="373.02" width="651.19" height="1077.74" rx="10.64"/><rect class="cls-9" x="503.25" y="373.02" width="651.19" height="1077.74" rx="10.64"/><path class="cls-10" d="M70.1,867.38H642.33a39.47,39.47,0,0,0,39.48-39.48v-84H30.62v84A39.48,39.48,0,0,0,70.1,867.38Z" transform="translate(472.62 583.38)"/><circle class="cls-11" cx="828.84" cy="1390.55" r="34.36"/><path class="cls-10" d="M642.33-210.36H70.1a39.48,39.48,0,0,0-39.48,39.48v26.72H681.81v-26.72A39.47,39.47,0,0,0,642.33-210.36Z" transform="translate(472.62 583.38)"/><path class="cls-11" d="M279.47-184.55H433a9.37,9.37,0,0,1,9.37,9.37h0a9.36,9.36,0,0,1-9.37,9.37H279.47a9.37,9.37,0,0,1-9.37-9.37h0A9.38,9.38,0,0,1,279.47-184.55Z" transform="translate(472.62 583.38)"/><path class="cls-11" d="M631.53-175.18a9.37,9.37,0,0,0-9.37-9.37,9.37,9.37,0,0,0-9.37,9.37,9.36,9.36,0,0,0,9.37,9.37A9.36,9.36,0,0,0,631.53-175.18Z" transform="translate(472.62 583.38)"/><rect class="cls-7" x="564.68" y="517.1" width="154.1" height="39.57"/><rect class="cls-4" x="564.68" y="583.22" width="539.48" height="16.4"/><rect class="cls-4" x="564.68" y="622.04" width="539.48" height="16.4"/><rect class="cls-4" x="564.68" y="660.87" width="246.25" height="16.4"/><rect class="cls-4" x="564.68" y="1154.84" width="539.48" height="16.4"/><rect class="cls-4" x="564.68" y="1193.67" width="539.48" height="16.4"/><rect class="cls-4" x="564.68" y="1232.5" width="77.31" height="16.4"/><rect class="cls-7" x="564.68" y="1035.62" width="148.63" height="39.57"/><rect class="cls-7" x="564.68" y="1088.72" width="249.89" height="39.57"/><rect class="cls-7" x="726.59" y="1035.62" width="294.66" height="39.57"/><rect class="cls-7" x="564.68" y="732.11" width="47.9" height="39.57"/><rect class="cls-7" x="627.15" y="732.11" width="150.46" height="39.57"/><rect class="cls-4" x="564.68" y="798.23" width="242.34" height="16.4"/><rect class="cls-4" x="564.68" y="837.06" width="242.34" height="16.4"/><rect class="cls-4" x="564.68" y="875.88" width="242.34" height="16.4"/><rect class="cls-4" x="564.68" y="914.71" width="242.34" height="16.4"/><rect class="cls-4" x="564.68" y="953.54" width="154.62" height="16.4"/><rect class="cls-9" x="849.97" y="736.79" width="253.78" height="233.15"/><rect class="cls-9" x="839.43" y="726.25" width="21.08" height="21.08"/><rect class="cls-9" x="1093.61" y="726.25" width="21.08" height="21.08"/><rect class="cls-9" x="839.43" y="959.4" width="21.08" height="21.08"/><rect class="cls-9" x="1093.61" y="959.4" width="21.08" height="21.08"/><path class="cls-9" d="M564.58,270a60.35,60.35,0,1,0-60.34,60.34" transform="translate(472.62 583.38)"/><circle class="cls-7" cx="976.86" cy="853.37" r="38.74"/><rect class="cls-4" x="878.08" y="763.48" width="20.82" height="16.4"/><rect class="cls-4" x="878.08" y="934.76" width="73.93" height="16.4"/><g class="cls-12"><rect class="cls-7" x="826.89" y="134.5" width="731.22" height="253.32" rx="7.66"/><rect class="cls-13" x="826.89" y="134.5" width="731.22" height="253.32" rx="7.66"/></g><rect class="cls-5" x="821.57" y="129.18" width="731.22" height="253.32" rx="7.66"/><rect class="cls-2" x="821.57" y="129.18" width="731.22" height="253.32" rx="7.66"/><line class="cls-2" x1="856.19" y1="182.28" x2="877.28" y2="161.2"/><line class="cls-2" x1="856.19" y1="161.2" x2="877.28" y2="182.28"/><rect class="cls-7" x="914.98" y="165.88" width="572.35" height="16.4"/><rect class="cls-4" x="914.98" y="204.71" width="572.35" height="16.4"/><rect class="cls-4" x="914.98" y="243.54" width="354.68" height="16.4"/><rect class="cls-7" x="1296.06" y="243.54" width="191.26" height="16.4"/><rect class="cls-7" x="914.98" y="282.37" width="256.6" height="16.4"/><rect class="cls-4" x="1199.02" y="282.37" width="288.3" height="16.4"/><rect class="cls-4" x="914.98" y="321.2" width="447.14" height="16.4"/><path class="cls-2" d="M462.07-101.21c0-62.84,47.64-59.8,47.64-116.55" transform="translate(472.62 583.38)"/><path class="cls-8" d="M509.71-238.85h0a10.54,10.54,0,0,0-10.54,10.55h0a10.54,10.54,0,0,0,10.54,10.54h0a10.54,10.54,0,0,0,10.54-10.54h0A10.54,10.54,0,0,0,509.71-238.85Z" transform="translate(472.62 583.38)"/><path class="cls-8" d="M462.07-101.21h0a10.54,10.54,0,0,0-10.54,10.54h0a10.54,10.54,0,0,0,10.54,10.55h0a10.55,10.55,0,0,0,10.55-10.55h0A10.54,10.54,0,0,0,462.07-101.21Z" transform="translate(472.62 583.38)"/><g class="cls-12"><rect class="cls-7" x="221.06" y="991.72" width="411.41" height="561.11" rx="7.66"/><rect class="cls-13" x="221.06" y="991.72" width="411.41" height="561.11" rx="7.66"/></g><rect class="cls-5" x="215.74" y="986.4" width="411.41" height="561.11" rx="7.66"/><rect class="cls-2" x="215.74" y="986.4" width="411.41" height="561.11" rx="7.66"/><line class="cls-2" x1="250.36" y1="1039.51" x2="271.45" y2="1018.42"/><line class="cls-2" x1="250.36" y1="1018.42" x2="271.45" y2="1039.51"/><path class="cls-7" d="M-6.39,607.15v15.08a81.36,81.36,0,0,1-44.79,13.4A81.31,81.31,0,0,1-96,622.23V607.15a44.78,44.78,0,0,1,44.78-44.78h0A44.79,44.79,0,0,1-6.39,607.15Zm-44.79-53.71A25.42,25.42,0,0,0-25.76,528a25.42,25.42,0,0,0-25.42-25.42A25.42,25.42,0,0,0-76.6,528,25.42,25.42,0,0,0-51.18,553.44Z" transform="translate(472.62 583.38)"/><circle class="cls-2" cx="421.44" cy="1137.21" r="81.8"/><rect class="cls-9" x="250.36" y="1288.94" width="21.08" height="21.08"/><rect class="cls-4" x="297.3" y="1293.63" width="274.66" height="16.4"/><rect class="cls-4" x="297.3" y="1332.46" width="274.66" height="16.4"/><rect class="cls-4" x="297.3" y="1371.29" width="175.23" height="16.4"/><rect class="cls-9" x="250.36" y="1424.91" width="21.08" height="21.08"/><rect class="cls-4" x="297.3" y="1429.59" width="274.66" height="16.4"/><rect class="cls-7" x="297.3" y="1468.42" width="241.34" height="16.4"/><path class="cls-2" d="M143.65,665.52c62.84,0,59.8-47.64,116.56-47.64" transform="translate(472.62 583.38)"/><path class="cls-8" d="M281.29,617.88h0a10.54,10.54,0,0,1-10.54,10.54h0a10.54,10.54,0,0,1-10.54-10.54h0a10.54,10.54,0,0,1,10.54-10.54h0A10.54,10.54,0,0,1,281.29,617.88Z" transform="translate(472.62 583.38)"/><path class="cls-8" d="M143.65,665.52h0a10.54,10.54,0,0,1-10.54,10.54h0a10.54,10.54,0,0,1-10.54-10.54h0A10.54,10.54,0,0,1,133.11,655h0A10.54,10.54,0,0,1,143.65,665.52Z" transform="translate(472.62 583.38)"/><g class="cls-12"><rect class="cls-7" x="973.8" y="1405.41" width="547.68" height="76.79" rx="7.66"/><rect class="cls-13" x="973.8" y="1405.41" width="547.68" height="76.79" rx="7.66"/></g><rect class="cls-5" x="968.48" y="1400.09" width="547.68" height="76.79" rx="7.66"/><rect class="cls-2" x="968.48" y="1400.09" width="547.68" height="76.79" rx="7.66"/><line class="cls-2" x1="1003.1" y1="1449.24" x2="1024.19" y2="1428.16"/><line class="cls-2" x1="1003.1" y1="1428.16" x2="1024.19" y2="1449.24"/><path class="cls-4" d="M999,842.57H599a12.54,12.54,0,0,0-12.54,12.53h0A12.54,12.54,0,0,0,599,867.64H999a12.53,12.53,0,0,0,12.54-12.54h0A12.53,12.53,0,0,0,999,842.57Z" transform="translate(472.62 583.38)"/><path class="cls-7" d="M920.93,842.57H599a12.54,12.54,0,1,0,0,25.07H920.93Z" transform="translate(472.62 583.38)"/><path class="cls-2" d="M368.74,809.46c62.84,0,59.8,47.64,116.56,47.64" transform="translate(472.62 583.38)"/><path class="cls-8" d="M506.38,857.1h0a10.54,10.54,0,0,0-10.54-10.54h0A10.54,10.54,0,0,0,485.3,857.1h0a10.54,10.54,0,0,0,10.54,10.54h0A10.54,10.54,0,0,0,506.38,857.1Z" transform="translate(472.62 583.38)"/><path class="cls-8" d="M368.74,809.46h0a10.54,10.54,0,0,0-10.54-10.54h0a10.54,10.54,0,0,0-10.54,10.54h0A10.54,10.54,0,0,0,358.2,820h0A10.54,10.54,0,0,0,368.74,809.46Z" transform="translate(472.62 583.38)"/><g class="cls-12"><rect class="cls-7" x="1090.73" y="513.7" width="258.22" height="414.53" rx="7.66"/><rect class="cls-13" x="1090.73" y="513.7" width="258.22" height="414.53" rx="7.66"/></g><rect class="cls-5" x="1085.41" y="508.38" width="258.22" height="414.53" rx="7.66"/><rect class="cls-2" x="1085.41" y="508.38" width="258.22" height="414.53" rx="7.66"/><line class="cls-2" x1="1120.03" y1="561.48" x2="1141.12" y2="540.4"/><line class="cls-2" x1="1120.03" y1="540.4" x2="1141.12" y2="561.48"/><text class="cls-14" transform="translate(1141.8 750.97)">&lt;/&gt;</text><path class="cls-2" d="M573.25,352.33c56.76,0,53.72-47.64,116.56-47.64h0a30.62,30.62,0,0,0,30.62-30.61V261.87" transform="translate(472.62 583.38)"/><path class="cls-8" d="M552.17,352.33h0a10.54,10.54,0,0,1,10.54-10.54h0a10.54,10.54,0,0,1,10.54,10.54h0a10.54,10.54,0,0,1-10.54,10.54h0A10.54,10.54,0,0,1,552.17,352.33Z" transform="translate(472.62 583.38)"/><path class="cls-8" d="M709.88,251.33h0a10.54,10.54,0,0,1,10.55-10.54h0A10.54,10.54,0,0,1,731,251.33h0a10.54,10.54,0,0,1-10.54,10.54h0A10.54,10.54,0,0,1,709.88,251.33Z" transform="translate(472.62 583.38)"/></g></g></svg>