<svg xmlns="http://www.w3.org/2000/svg" xmlns:xlink="http://www.w3.org/1999/xlink" viewBox="0 0 1748.98 1665.7"><defs><style>.cls-1{isolation:isolate;}.cls-11,.cls-14,.cls-16,.cls-2{fill:#42e8e0;}.cls-19,.cls-2,.cls-30,.cls-32{mix-blend-mode:lighten;}.cls-3{fill:url(#Áåçûìÿííûé_ãðàäèåíò_18);}.cls-4{fill:#bcbeff;}.cls-5{fill:#fff;}.cls-6{fill:#0f054c;}.cls-10,.cls-11,.cls-12,.cls-13,.cls-33,.cls-7,.cls-8,.cls-9{opacity:0.5;}.cls-7{fill:url(#Áåçûìÿííûé_ãðàäèåíò_254);}.cls-8{fill:url(#Áåçûìÿííûé_ãðàäèåíò_254-2);}.cls-9{fill:url(#Áåçûìÿííûé_ãðàäèåíò_254-3);}.cls-10{fill:url(#Áåçûìÿííûé_ãðàäèåíò_254-4);}.cls-12{fill:url(#Áåçûìÿííûé_ãðàäèåíò_254-5);}.cls-13{fill:url(#Áåçûìÿííûé_ãðàäèåíò_254-6);}.cls-14{opacity:0.8;}.cls-15{opacity:0.3;}.cls-17{fill:url(#Áåçûìÿííûé_ãðàäèåíò_16);}.cls-18{fill:url(#Áåçûìÿííûé_ãðàäèåíò_16-2);}.cls-20{fill:url(#Áåçûìÿííûé_ãðàäèåíò_12);}.cls-21{fill:#393091;}.cls-22{fill:#453c9e;}.cls-23{fill:url(#Áåçûìÿííûé_ãðàäèåíò_16-3);}.cls-24{fill:url(#Áåçûìÿííûé_ãðàäèåíò_16-4);}.cls-25{fill:url(#Áåçûìÿííûé_ãðàäèåíò_12-2);}.cls-26{fill:url(#Áåçûìÿííûé_ãðàäèåíò_16-5);}.cls-27{fill:url(#Áåçûìÿííûé_ãðàäèåíò_16-6);}.cls-28{fill:url(#Áåçûìÿííûé_ãðàäèåíò_12-3);}.cls-29{fill:url(#Áåçûìÿííûé_ãðàäèåíò_16-7);}.cls-30{fill:url(#Áåçûìÿííûé_ãðàäèåíò_12-4);}.cls-31{fill:url(#Áåçûìÿííûé_ãðàäèåíò_16-8);}.cls-32{fill:url(#Áåçûìÿííûé_ãðàäèåíò_12-5);}</style><linearGradient id="Áåçûìÿííûé_ãðàäèåíò_18" x1="-62.63" y1="1380.05" x2="1444.23" y2="1380.05" gradientUnits="userSpaceOnUse"><stop offset="0" stop-color="#5761d7"/><stop offset="0.16" stop-color="#5e67da"/><stop offset="0.41" stop-color="#727ae2"/><stop offset="0.69" stop-color="#9297ee"/><stop offset="1" stop-color="#bcbeff"/></linearGradient><linearGradient id="Áåçûìÿííûé_ãðàäèåíò_254" x1="363.81" y1="1176.43" x2="1268.27" y2="1176.43" gradientUnits="userSpaceOnUse"><stop offset="0" stop-color="#42e8e0"/><stop offset="0.15" stop-color="#43e3e0"/><stop offset="0.33" stop-color="#45d5df"/><stop offset="0.52" stop-color="#49bddd"/><stop offset="0.72" stop-color="#4e9cdb"/><stop offset="0.93" stop-color="#5472d8"/><stop offset="1" stop-color="#5761d7"/></linearGradient><linearGradient id="Áåçûìÿííûé_ãðàäèåíò_254-2" x1="816.04" y1="1012.96" x2="1268.27" y2="1012.96" xlink:href="#Áåçûìÿííûé_ãðàäèåíò_254"/><linearGradient id="Áåçûìÿííûé_ãðàäèåíò_254-3" x1="363.81" y1="1012.96" x2="816.05" y2="1012.96" xlink:href="#Áåçûìÿííûé_ãðàäèåíò_254"/><linearGradient id="Áåçûìÿííûé_ãðàäèåíò_254-4" x1="363.81" y1="1110.59" x2="1268.27" y2="1110.59" xlink:href="#Áåçûìÿííûé_ãðàäèåíò_254"/><linearGradient id="Áåçûìÿííûé_ãðàäèåíò_254-5" x1="816.05" y1="1274.06" x2="1268.27" y2="1274.06" xlink:href="#Áåçûìÿííûé_ãðàäèåíò_254"/><linearGradient id="Áåçûìÿííûé_ãðàäèåíò_254-6" x1="363.81" y1="1274.05" x2="816.05" y2="1274.05" xlink:href="#Áåçûìÿííûé_ãðàäèåíò_254"/><radialGradient id="Áåçûìÿííûé_ãðàäèåíò_16" cx="54.25" cy="-606.31" r="581.55" gradientTransform="translate(229.7 480.55) rotate(45.18)" gradientUnits="userSpaceOnUse"><stop offset="0" stop-color="#c0bff6"/><stop offset="1" stop-color="#393091"/></radialGradient><radialGradient id="Áåçûìÿííûé_ãðàäèåíò_16-2" cx="1176.03" cy="302.05" r="574.52" gradientTransform="translate(-382.93 -134.78) scale(0.78 1.06)" xlink:href="#Áåçûìÿííûé_ãðàäèåíò_16"/><linearGradient id="Áåçûìÿííûé_ãðàäèåíò_12" x1="978.78" y1="686.47" x2="978.78" y2="112.18" gradientTransform="translate(-382.93 -134.78) scale(0.78 1.06)" gradientUnits="userSpaceOnUse"><stop offset="0" stop-color="#42e8e0"/><stop offset="0" stop-color="#42e6df"/><stop offset="0.14" stop-color="#40b6cb"/><stop offset="0.27" stop-color="#3e8db9"/><stop offset="0.41" stop-color="#3c6baa"/><stop offset="0.55" stop-color="#3b519f"/><stop offset="0.69" stop-color="#3a3f97"/><stop offset="0.84" stop-color="#393493"/><stop offset="1" stop-color="#393091"/></linearGradient><radialGradient id="Áåçûìÿííûé_ãðàäèåíò_16-3" cx="116.75" cy="-567.26" r="314.81" gradientTransform="matrix(1, 0, 0, 1, 0, 0)" xlink:href="#Áåçûìÿííûé_ãðàäèåíò_16"/><radialGradient id="Áåçûìÿííûé_ãðàäèåíò_16-4" cx="554.55" cy="-194.75" r="448.41" gradientTransform="translate(4.01 -320.58) rotate(45)" xlink:href="#Áåçûìÿííûé_ãðàäèåíò_16"/><linearGradient id="Áåçûìÿííûé_ãðàäèåíò_12-2" x1="352.05" y1="107.3" x2="425.91" y2="-418.2" gradientTransform="translate(4.01 -320.58) rotate(45)" xlink:href="#Áåçûìÿííûé_ãðàäèåíò_12"/><radialGradient id="Áåçûìÿííûé_ãðàäèåíò_16-5" cx="550.96" cy="-199.52" r="212.95" gradientTransform="matrix(1, 0, 0, 1, 0, 0)" xlink:href="#Áåçûìÿííûé_ãðàäèåíò_16"/><radialGradient id="Áåçûìÿííûé_ãðàäèåíò_16-6" cx="259.73" cy="-257.87" r="210.18" gradientTransform="matrix(0.56, 0.83, -0.83, 0.56, 404.55, 138.15)" xlink:href="#Áåçûìÿííûé_ãðàäèåíò_16"/><linearGradient id="Áåçûìÿííûé_ãðàäèåíò_12-3" x1="145.49" y1="-107.86" x2="282.39" y2="-255.7" gradientTransform="matrix(0.56, 0.83, -0.83, 0.56, 404.55, 138.15)" xlink:href="#Áåçûìÿííûé_ãðàäèåíò_12"/><radialGradient id="Áåçûìÿííûé_ãðàäèåíò_16-7" cx="825.9" cy="-1546.98" fy="-1534.3081679723643" r="194.72" gradientTransform="matrix(0.91, 0.11, -0.18, 1.5, -168.1, 2700.89)" xlink:href="#Áåçûìÿííûé_ãðàäèåíò_16"/><linearGradient id="Áåçûìÿííûé_ãðàäèåíò_12-4" x1="594.49" y1="584.71" x2="746.57" y2="584.71" gradientTransform="matrix(0.91, 0.11, -0.14, 1.14, 231.25, -171.28)" xlink:href="#Áåçûìÿííûé_ãðàäèåíò_12"/><radialGradient id="Áåçûìÿííûé_ãðàäèåíò_16-8" cx="-2607.65" cy="-1990.86" fy="-1978.188400481914" r="194.72" gradientTransform="matrix(0.44, 0.8, -1.33, 0.73, -1508.73, 3726.39)" xlink:href="#Áåçûìÿííûé_ãðàäèåíò_16"/><linearGradient id="Áåçûìÿííûé_ãðàäèåíò_12-5" x1="-3035.39" y1="206.01" x2="-3126.55" y2="327.75" gradientTransform="matrix(0.44, 0.8, -1.01, 0.55, 1443.42, 2579.34)" xlink:href="#Áåçûìÿííûé_ãðàäèåíò_12"/></defs><title>robo</title><g class="cls-1"><g id="Layer_1" data-name="Layer 1"><path class="cls-2" d="M310.51,371.78a24.23,24.23,0,0,1-11.94-3.6L222.05,324a3.12,3.12,0,0,1,3.12-5.41l76.52,44.18c5.2,3,9.93,3.58,13.31,1.62s5.25-6.33,5.25-12.34V333.6c0-8.33,3-14.64,8.37-17.75s12.34-2.54,19.56,1.63l16,9.22a3.12,3.12,0,0,1-3.12,5.41l-16-9.22c-5.2-3-9.92-3.6-13.31-1.63s-5.25,6.33-5.25,12.34v18.45c0,8.33-3,14.64-8.36,17.75A15,15,0,0,1,310.51,371.78Z" transform="translate(444.31 513.65)"/><path class="cls-2" d="M280.75,388.9a24.21,24.21,0,0,1-11.95-3.61l-76.51-44.16a3.13,3.13,0,0,1,3.13-5.42l76.51,44.17c5.2,3,9.92,3.6,13.31,1.64s5.25-6.34,5.25-12.35V350.72c0-8.33,3-14.63,8.37-17.75s12.34-2.53,19.56,1.62l16,9.23a3.12,3.12,0,0,1-3.12,5.41l-16-9.22c-5.22-3-9.93-3.59-13.32-1.63s-5.25,6.34-5.25,12.34v18.45c0,8.34-3,14.64-8.37,17.75A15,15,0,0,1,280.75,388.9Z" transform="translate(444.31 513.65)"/><path class="cls-2" d="M251,406a24.23,24.23,0,0,1-11.95-3.6l-76.52-44.18a3.12,3.12,0,0,1,3.12-5.41L242.17,397c5.21,3,9.93,3.59,13.31,1.62s5.25-6.33,5.25-12.34V367.84c0-8.33,3-14.64,8.37-17.75s12.34-2.54,19.56,1.63l16,9.22a3.12,3.12,0,0,1-3.12,5.41l-16-9.22c-5.21-3-9.94-3.6-13.32-1.63S267,361.83,267,367.84v18.45c0,8.33-3,14.63-8.37,17.75A14.92,14.92,0,0,1,251,406Z" transform="translate(444.31 513.65)"/><path class="cls-2" d="M221.23,423.14a24.15,24.15,0,0,1-11.94-3.61l-76.52-44.16a3.13,3.13,0,0,1,3.12-5.42l76.52,44.17c5.2,3,9.92,3.6,13.31,1.64s5.25-6.34,5.25-12.35V385c0-8.33,3-14.64,8.37-17.75s12.34-2.54,19.56,1.62l16,9.23a3.12,3.12,0,0,1-3.12,5.41l-16-9.22c-5.19-3-9.93-3.59-13.31-1.63S237.21,379,237.21,385v18.45c0,8.34-3,14.64-8.37,17.75A15,15,0,0,1,221.23,423.14Z" transform="translate(444.31 513.65)"/><path class="cls-2" d="M191.47,440.26a24.29,24.29,0,0,1-11.95-3.6L103,392.48a3.13,3.13,0,1,1,3.13-5.41l76.51,44.18c5.2,3,9.93,3.58,13.31,1.62s5.25-6.33,5.25-12.34V402.08c0-8.33,3-14.64,8.37-17.75s12.34-2.54,19.56,1.63l16,9.22a3.12,3.12,0,0,1-3.12,5.41l-16-9.22c-5.21-3-9.94-3.6-13.32-1.64s-5.25,6.34-5.25,12.35v18.45c0,8.33-3,14.63-8.36,17.75A15,15,0,0,1,191.47,440.26Z" transform="translate(444.31 513.65)"/><path class="cls-2" d="M161.72,457.38a24.23,24.23,0,0,1-11.95-3.6L73.25,409.6a3.12,3.12,0,0,1,3.12-5.41l76.52,44.17c5.2,3,9.93,3.59,13.31,1.63s5.25-6.33,5.25-12.34V419.2c0-8.33,3-14.63,8.37-17.75s12.34-2.53,19.56,1.62l16,9.23a3.12,3.12,0,0,1-3.12,5.41l-16-9.23c-5.22-3-9.93-3.59-13.32-1.62s-5.25,6.33-5.25,12.34v18.45c0,8.33-3,14.64-8.37,17.75A15,15,0,0,1,161.72,457.38Z" transform="translate(444.31 513.65)"/><path class="cls-2" d="M132,474.5A24.23,24.23,0,0,1,120,470.9L43.49,426.72a3.12,3.12,0,0,1,3.12-5.41l76.52,44.17c5.19,3,9.93,3.59,13.31,1.63s5.25-6.33,5.25-12.34V436.32c0-8.34,3-14.64,8.37-17.75s12.35-2.54,19.56,1.62l16,9.23a3.12,3.12,0,0,1-3.12,5.41l-16-9.23c-5.2-3-9.92-3.58-13.31-1.63s-5.25,6.34-5.25,12.35v18.45c0,8.33-3,14.63-8.36,17.75A15,15,0,0,1,132,474.5Z" transform="translate(444.31 513.65)"/><path class="cls-2" d="M102.19,491.62a24.21,24.21,0,0,1-12-3.61L13.73,443.84a3.13,3.13,0,0,1,3.12-5.42L93.37,482.6c5.19,3,9.93,3.58,13.31,1.63s5.25-6.34,5.25-12.34V453.43c0-8.32,3-14.62,8.37-17.74s12.35-2.54,19.56,1.62l16,9.23a3.12,3.12,0,0,1-3.12,5.41l-16-9.23c-5.22-3-9.94-3.59-13.32-1.62s-5.25,6.33-5.25,12.33v18.46c0,8.33-3,14.63-8.36,17.75A15.12,15.12,0,0,1,102.19,491.62Z" transform="translate(444.31 513.65)"/><path class="cls-2" d="M72.44,508.74a24.23,24.23,0,0,1-11.95-3.6L-16,461a3.13,3.13,0,0,1-1.14-4.27,3.12,3.12,0,0,1,4.26-1.14l76.52,44.17c5.2,3,9.93,3.59,13.31,1.63S82.17,495,82.17,489V470.56c0-8.34,3-14.64,8.37-17.75s12.34-2.54,19.56,1.62l16,9.23a3.12,3.12,0,0,1-3.12,5.41l-16-9.23c-5.19-3-9.92-3.58-13.31-1.63s-5.25,6.34-5.25,12.35V489c0,8.33-3,14.63-8.37,17.75A14.92,14.92,0,0,1,72.44,508.74Z" transform="translate(444.31 513.65)"/><path class="cls-2" d="M42.67,525.86a24.15,24.15,0,0,1-11.94-3.61l-76.52-44.17a3.13,3.13,0,0,1-1.14-4.27,3.13,3.13,0,0,1,4.26-1.15l76.52,44.18c5.19,3,9.92,3.58,13.31,1.63s5.25-6.34,5.25-12.34V487.67c0-8.32,3-14.63,8.37-17.74s12.34-2.54,19.56,1.62l16,9.23a3.12,3.12,0,0,1-3.12,5.41l-16-9.23c-5.2-3-9.93-3.58-13.31-1.62s-5.25,6.33-5.25,12.33v18.46c0,8.33-3,14.63-8.36,17.75A15.09,15.09,0,0,1,42.67,525.86Z" transform="translate(444.31 513.65)"/><path class="cls-2" d="M12.92,543a24.16,24.16,0,0,1-12-3.62L-75.55,495.2a3.13,3.13,0,0,1-1.14-4.27,3.12,3.12,0,0,1,4.26-1.14L4.09,534c5.2,3,9.93,3.59,13.31,1.63s5.25-6.34,5.25-12.34V504.8c0-8.34,3-14.64,8.37-17.75s12.34-2.54,19.56,1.62l16,9.22a3.13,3.13,0,0,1-3.12,5.42l-16-9.23c-5.2-3-9.94-3.58-13.32-1.63s-5.25,6.34-5.25,12.35v18.45c0,8.33-3,14.63-8.37,17.75A15,15,0,0,1,12.92,543Z" transform="translate(444.31 513.65)"/><path class="cls-2" d="M-16.84,560.09a24.13,24.13,0,0,1-11.95-3.6l-76.52-44.17a3.13,3.13,0,0,1-1.14-4.27,3.13,3.13,0,0,1,4.26-1.15l76.52,44.18c5.2,3,9.93,3.59,13.31,1.63s5.25-6.33,5.25-12.34V521.91c0-8.33,3-14.63,8.37-17.75s12.35-2.53,19.56,1.63l16,9.23a3.13,3.13,0,1,1-3.13,5.41l-16-9.23c-5.19-3-9.93-3.59-13.31-1.63s-5.25,6.34-5.25,12.34v18.46c0,8.33-3,14.63-8.37,17.75A15,15,0,0,1-16.84,560.09Z" transform="translate(444.31 513.65)"/><path class="cls-2" d="M-46.6,577.22a24.2,24.2,0,0,1-11.95-3.62l-76.52-44.16a3.13,3.13,0,0,1-1.14-4.27,3.11,3.11,0,0,1,4.26-1.14l76.52,44.17c5.2,3,9.94,3.59,13.31,1.63s5.25-6.34,5.25-12.34V539c0-8.34,3-14.64,8.37-17.76s12.34-2.53,19.56,1.63l16,9.22a3.13,3.13,0,0,1-3.12,5.42l-16-9.23c-5.2-3-9.92-3.58-13.31-1.63S-30.63,533-30.63,539v18.45c0,8.33-3,14.63-8.37,17.75A15,15,0,0,1-46.6,577.22Z" transform="translate(444.31 513.65)"/><path class="cls-2" d="M-76.37,594.33a24.19,24.19,0,0,1-11.95-3.6l-76.51-44.17a3.14,3.14,0,0,1-1.14-4.28,3.13,3.13,0,0,1,4.26-1.14l76.52,44.18c5.19,3,9.92,3.59,13.31,1.63s5.25-6.34,5.25-12.35V556.15c0-8.33,3-14.63,8.37-17.75s12.34-2.53,19.56,1.63l16,9.22a3.13,3.13,0,0,1,1.14,4.27,3.12,3.12,0,0,1-4.26,1.14l-16-9.22c-5.21-3-9.94-3.59-13.32-1.63s-5.25,6.33-5.25,12.34V574.6c0,8.34-3,14.64-8.36,17.75A15,15,0,0,1-76.37,594.33Z" transform="translate(444.31 513.65)"/><path class="cls-2" d="M-106.12,611.46a24.2,24.2,0,0,1-11.95-3.62l-76.52-44.16a3.13,3.13,0,0,1-1.14-4.27,3.12,3.12,0,0,1,4.26-1.15l76.52,44.18c5.2,3,9.93,3.59,13.31,1.63s5.25-6.34,5.25-12.34V573.28c0-8.34,3-14.64,8.37-17.76s12.34-2.53,19.56,1.63l16,9.22a3.13,3.13,0,0,1,1.14,4.27,3.14,3.14,0,0,1-4.27,1.15l-16-9.23c-5.19-3-9.92-3.59-13.31-1.63s-5.25,6.34-5.25,12.35v18.45c0,8.33-3,14.64-8.37,17.75A15,15,0,0,1-106.12,611.46Z" transform="translate(444.31 513.65)"/><path class="cls-2" d="M-135.89,628.57a24.13,24.13,0,0,1-11.94-3.6l-76.52-44.18a3.13,3.13,0,0,1-1.14-4.27,3.14,3.14,0,0,1,4.26-1.14l76.52,44.18c5.19,3,9.93,3.59,13.31,1.63s5.25-6.34,5.25-12.35V590.39c0-8.33,3-14.64,8.37-17.75s12.34-2.54,19.56,1.63l16,9.22a3.13,3.13,0,0,1,1.14,4.26,3.12,3.12,0,0,1-4.27,1.15l-16-9.22c-5.2-3-9.93-3.59-13.31-1.63s-5.25,6.33-5.25,12.34v18.45c0,8.34-3,14.64-8.36,17.75A15,15,0,0,1-135.89,628.57Z" transform="translate(444.31 513.65)"/><path class="cls-2" d="M-165.65,645.7a24.23,24.23,0,0,1-11.95-3.62l-76.51-44.16a3.13,3.13,0,0,1-1.14-4.27A3.12,3.12,0,0,1-251,592.5l76.52,44.18c5.2,3,9.93,3.58,13.31,1.63s5.25-6.34,5.25-12.35V607.51c0-8.33,3-14.64,8.37-17.75s12.34-2.53,19.55,1.62l16,9.23a3.13,3.13,0,0,1,1.14,4.27,3.13,3.13,0,0,1-4.26,1.15l-16-9.23c-5.2-3-9.93-3.59-13.31-1.63s-5.25,6.33-5.25,12.34V626c0,8.34-3,14.64-8.37,17.76A15.05,15.05,0,0,1-165.65,645.7Z" transform="translate(444.31 513.65)"/><path class="cls-2" d="M-195.41,662.81a24.19,24.19,0,0,1-12-3.6L-283.87,615a3.13,3.13,0,0,1-1.14-4.27,3.12,3.12,0,0,1,4.26-1.14l76.52,44.18c5.2,3,9.92,3.59,13.31,1.63s5.25-6.34,5.25-12.35V624.63c0-8.33,3-14.63,8.37-17.75s12.34-2.53,19.56,1.63l16,9.22a3.12,3.12,0,0,1,1.14,4.26,3.12,3.12,0,0,1-4.27,1.15l-16-9.22c-5.2-3-9.93-3.59-13.31-1.63s-5.25,6.33-5.25,12.34v18.45c0,8.33-3,14.64-8.37,17.75A15,15,0,0,1-195.41,662.81Z" transform="translate(444.31 513.65)"/><path class="cls-2" d="M-225.17,679.93a24.23,24.23,0,0,1-11.94-3.6l-76.52-44.18a3.13,3.13,0,0,1-1.14-4.27,3.12,3.12,0,0,1,4.26-1.14L-234,670.91c5.2,3,9.93,3.59,13.31,1.63s5.25-6.33,5.25-12.34V641.75c0-8.33,3-14.63,8.36-17.75s12.35-2.54,19.57,1.62l16,9.23a3.13,3.13,0,0,1,1.14,4.27,3.13,3.13,0,0,1-4.27,1.14l-16-9.22c-5.2-3-9.93-3.59-13.31-1.63s-5.25,6.34-5.25,12.34V660.2c0,8.33-3,14.64-8.37,17.75A14.93,14.93,0,0,1-225.17,679.93Z" transform="translate(444.31 513.65)"/><path class="cls-2" d="M-254.93,697.05a24.19,24.19,0,0,1-11.95-3.6l-76.51-44.18a3.12,3.12,0,0,1-1.14-4.27,3.12,3.12,0,0,1,4.26-1.14L-263.75,688c5.2,3,9.93,3.58,13.31,1.62s5.25-6.33,5.25-12.34V658.87c0-8.33,3-14.63,8.37-17.75s12.34-2.54,19.55,1.62l16,9.23a3.13,3.13,0,0,1,1.14,4.27,3.12,3.12,0,0,1-4.26,1.14l-16-9.23c-5.2-3-9.92-3.57-13.31-1.62s-5.25,6.33-5.25,12.34v18.45c0,8.33-3,14.64-8.36,17.75A15,15,0,0,1-254.93,697.05Z" transform="translate(444.31 513.65)"/><path class="cls-2" d="M432.46,373.18a15,15,0,0,1-7.62-2c-5.39-3.12-8.36-9.42-8.36-17.75V335c0-6-1.87-10.39-5.25-12.34s-8.12-1.38-13.32,1.63l-16,9.22a3.13,3.13,0,1,1-3.13-5.41l16-9.23c7.22-4.16,14.17-4.74,19.56-1.62s8.37,9.42,8.37,17.75v18.45c0,6,1.86,10.39,5.25,12.34s8.1,1.37,13.32-1.63L517.79,320a3.13,3.13,0,0,1,3.13,5.41l-76.51,44.18A24.32,24.32,0,0,1,432.46,373.18Z" transform="translate(444.31 513.65)"/><path class="cls-2" d="M462.21,390.3a15.08,15.08,0,0,1-7.61-2c-5.39-3.12-8.36-9.42-8.36-17.75V352.12c0-6-1.87-10.39-5.25-12.34s-8.12-1.38-13.31,1.62l-16,9.23a3.13,3.13,0,1,1-3.13-5.41l16-9.23c7.21-4.15,14.16-4.75,19.56-1.62s8.37,9.42,8.37,17.75v18.45c0,6,1.87,10.39,5.25,12.34s8.1,1.38,13.31-1.62l76.52-44.18a3.12,3.12,0,0,1,3.11,5.41l-76.51,44.17A24.18,24.18,0,0,1,462.21,390.3Z" transform="translate(444.31 513.65)"/><path class="cls-2" d="M492,407.42a15,15,0,0,1-7.6-2C479,402.33,476,396,476,387.69V369.24c0-6-1.87-10.39-5.25-12.34s-8.12-1.38-13.31,1.62l-16,9.23a3.13,3.13,0,1,1-3.13-5.41l16-9.23c7.22-4.16,14.16-4.75,19.56-1.62s8.37,9.42,8.37,17.75v18.45c0,6,1.87,10.39,5.25,12.34s8.11,1.38,13.31-1.63l76.51-44.17a3.13,3.13,0,1,1,3.13,5.41l-76.52,44.18A24.23,24.23,0,0,1,492,407.42Z" transform="translate(444.31 513.65)"/><path class="cls-2" d="M521.73,424.54a15,15,0,0,1-7.6-2c-5.41-3.12-8.38-9.42-8.38-17.75V386.36c0-6-1.86-10.39-5.24-12.35s-8.12-1.37-13.31,1.63l-16,9.23a3.12,3.12,0,1,1-3.12-5.41l16-9.23c7.21-4.16,14.16-4.74,19.55-1.63S512,378,512,386.36v18.45c0,6,1.86,10.39,5.24,12.34s8.13,1.38,13.32-1.62l76.52-44.18a3.12,3.12,0,1,1,3.12,5.41l-76.52,44.17A24.18,24.18,0,0,1,521.73,424.54Z" transform="translate(444.31 513.65)"/><path class="cls-2" d="M551.49,441.66a15.05,15.05,0,0,1-7.61-2c-5.39-3.12-8.37-9.42-8.37-17.75V403.48c0-6-1.86-10.39-5.24-12.35s-8.13-1.37-13.32,1.63L501,402a3.12,3.12,0,1,1-3.12-5.41l16-9.23c7.22-4.15,14.17-4.73,19.56-1.63s8.37,9.42,8.37,17.76v18.45c0,6,1.86,10.39,5.24,12.34s8.11,1.37,13.32-1.63l76.51-44.18a3.13,3.13,0,0,1,3.13,5.42l-76.51,44.18A24.3,24.3,0,0,1,551.49,441.66Z" transform="translate(444.31 513.65)"/><path class="cls-2" d="M581.25,458.78a15.05,15.05,0,0,1-7.61-2c-5.39-3.12-8.36-9.42-8.36-17.75V420.6c0-6-1.87-10.4-5.25-12.35s-8.12-1.36-13.32,1.63l-16,9.23a3.13,3.13,0,1,1-3.13-5.41l16-9.23c7.22-4.16,14.17-4.75,19.56-1.62s8.37,9.41,8.37,17.75v18.45c0,6,1.86,10.39,5.25,12.34s8.1,1.38,13.31-1.63l76.52-44.17a3.12,3.12,0,1,1,3.11,5.41L593.2,455.17A24.18,24.18,0,0,1,581.25,458.78Z" transform="translate(444.31 513.65)"/><path class="cls-2" d="M611,475.9a15.09,15.09,0,0,1-7.62-2C598,470.8,595,464.5,595,456.16V437.71c0-6-1.87-10.39-5.25-12.34S581.68,424,576.48,427l-16,9.23a3.13,3.13,0,0,1-3.12-5.42l16-9.22c7.22-4.15,14.16-4.74,19.56-1.63s8.37,9.42,8.37,17.75v18.45c0,6,1.86,10.4,5.25,12.35s8.12,1.37,13.32-1.63l76.5-44.18a3.13,3.13,0,0,1,3.13,5.42L623,472.29A24.24,24.24,0,0,1,611,475.9Z" transform="translate(444.31 513.65)"/><path class="cls-2" d="M640.77,493a15,15,0,0,1-7.6-2c-5.4-3.12-8.37-9.42-8.37-17.75V454.84c0-6-1.87-10.4-5.25-12.35s-8.12-1.38-13.31,1.63l-16,9.23a3.13,3.13,0,0,1-3.13-5.42l16-9.22c7.21-4.16,14.17-4.75,19.56-1.62S631,446.5,631,454.84v18.45c0,6,1.87,10.39,5.25,12.34s8.1,1.37,13.31-1.63l76.52-44.17a3.12,3.12,0,1,1,3.11,5.41l-76.51,44.17A24.18,24.18,0,0,1,640.77,493Z" transform="translate(444.31 513.65)"/><path class="cls-2" d="M670.54,510.13a15,15,0,0,1-7.61-2c-5.4-3.12-8.37-9.42-8.37-17.76V472c0-6-1.87-10.39-5.25-12.34s-8.12-1.37-13.31,1.63l-16,9.22a3.12,3.12,0,1,1-3.11-5.41l16-9.22c7.21-4.16,14.17-4.73,19.55-1.63s8.37,9.42,8.37,17.75V490.4c0,6,1.87,10.4,5.25,12.35s8.11,1.37,13.31-1.63l76.51-44.18a3.13,3.13,0,0,1,3.13,5.42l-76.52,44.17A24.13,24.13,0,0,1,670.54,510.13Z" transform="translate(444.31 513.65)"/><path class="cls-2" d="M700.29,527.26a15,15,0,0,1-7.6-2c-5.4-3.12-8.38-9.42-8.38-17.75V489.07c0-6-1.86-10.39-5.24-12.34s-8.12-1.38-13.31,1.63l-16,9.23a3.13,3.13,0,0,1-3.12-5.42l16-9.22c7.2-4.16,14.15-4.75,19.55-1.63s8.37,9.42,8.37,17.75v18.46c0,6,1.86,10.38,5.25,12.34s8.11,1.37,13.31-1.63l76.52-44.17a3.12,3.12,0,1,1,3.12,5.41l-76.52,44.17A24.15,24.15,0,0,1,700.29,527.26Z" transform="translate(444.31 513.65)"/><path class="cls-2" d="M730.05,544.37a15,15,0,0,1-7.61-2c-5.39-3.11-8.37-9.41-8.37-17.75V506.19c0-6-1.86-10.39-5.24-12.34s-8.12-1.39-13.32,1.63l-16,9.22a3.12,3.12,0,1,1-3.12-5.41l16-9.22c7.22-4.16,14.16-4.74,19.56-1.63s8.37,9.42,8.37,17.75v18.45c0,6,1.86,10.4,5.24,12.35s8.12,1.38,13.32-1.63l76.51-44.18a3.13,3.13,0,0,1,3.13,5.42L742,540.77A24.19,24.19,0,0,1,730.05,544.37Z" transform="translate(444.31 513.65)"/><path class="cls-2" d="M759.82,561.49a15,15,0,0,1-7.62-2c-5.39-3.12-8.36-9.42-8.36-17.74V523.31c0-6-1.87-10.39-5.25-12.34s-8.12-1.38-13.32,1.63l-16,9.23a3.13,3.13,0,0,1-3.13-5.42l16-9.22c7.23-4.16,14.17-4.74,19.56-1.63s8.37,9.42,8.37,17.75v18.46c0,6,1.86,10.38,5.25,12.33s8.11,1.38,13.31-1.62l76.51-44.18a3.13,3.13,0,0,1,3.13,5.41l-76.51,44.18A24.32,24.32,0,0,1,759.82,561.49Z" transform="translate(444.31 513.65)"/><path class="cls-2" d="M789.58,578.61a15,15,0,0,1-7.62-2c-5.39-3.11-8.36-9.41-8.36-17.75V540.43c0-6-1.87-10.39-5.25-12.34s-8.13-1.37-13.32,1.63l-16,9.22a3.13,3.13,0,1,1-3.13-5.41l16-9.23c7.22-4.16,14.17-4.74,19.56-1.62s8.37,9.42,8.37,17.75v18.45c0,6,1.86,10.4,5.25,12.35s8.13,1.38,13.32-1.63l76.5-44.18a3.13,3.13,0,0,1,3.13,5.42L801.53,575A24.22,24.22,0,0,1,789.58,578.61Z" transform="translate(444.31 513.65)"/><path class="cls-2" d="M819.34,595.73a14.93,14.93,0,0,1-7.61-2c-5.4-3.12-8.37-9.42-8.37-17.75V557.55c0-6-1.87-10.39-5.25-12.34s-8.11-1.38-13.32,1.63l-16,9.23a3.13,3.13,0,0,1-3.13-5.42l16-9.23c7.23-4.16,14.17-4.74,19.56-1.62s8.37,9.42,8.37,17.75V576c0,6,1.87,10.39,5.25,12.34s8.11,1.38,13.32-1.62l76.5-44.18A3.13,3.13,0,1,1,907.8,548l-76.51,44.18A24.29,24.29,0,0,1,819.34,595.73Z" transform="translate(444.31 513.65)"/><path class="cls-2" d="M849.1,612.85a15,15,0,0,1-7.61-2c-5.4-3.11-8.37-9.42-8.37-17.75V574.67c0-6-1.87-10.39-5.25-12.34S819.76,561,814.56,564l-16,9.23a3.13,3.13,0,0,1-3.13-5.41l16-9.23c7.22-4.15,14.16-4.75,19.56-1.62s8.37,9.42,8.37,17.75v18.45c0,6,1.87,10.4,5.25,12.35s8.13,1.37,13.32-1.63l76.5-44.18a3.13,3.13,0,1,1,3.13,5.41l-76.51,44.18A24.19,24.19,0,0,1,849.1,612.85Z" transform="translate(444.31 513.65)"/><path class="cls-2" d="M878.85,630a15,15,0,0,1-7.6-2c-5.4-3.12-8.37-9.43-8.37-17.76V591.79c0-6-1.86-10.39-5.25-12.34s-8.12-1.38-13.31,1.63l-16,9.23a3.13,3.13,0,0,1-3.13-5.42l16-9.23c7.22-4.15,14.17-4.74,19.57-1.62s8.36,9.42,8.36,17.75v18.45c0,6,1.87,10.39,5.25,12.34s8.11,1.38,13.31-1.63l76.51-44.17a3.13,3.13,0,1,1,3.13,5.41L890.8,626.37A24.23,24.23,0,0,1,878.85,630Z" transform="translate(444.31 513.65)"/><path class="cls-2" d="M908.61,647.09a15,15,0,0,1-7.6-2c-5.4-3.11-8.38-9.42-8.38-17.75V608.91c0-6-1.86-10.39-5.24-12.34s-8.12-1.38-13.31,1.62l-16,9.23A3.12,3.12,0,1,1,855,602l16-9.23c7.21-4.15,14.16-4.73,19.55-1.63s8.37,9.43,8.37,17.76v18.45c0,6,1.86,10.39,5.24,12.35s8.13,1.37,13.32-1.63L994,593.9a3.12,3.12,0,1,1,3.12,5.41l-76.52,44.17A24.18,24.18,0,0,1,908.61,647.09Z" transform="translate(444.31 513.65)"/><path class="cls-2" d="M938.38,664.21a15,15,0,0,1-7.62-2c-5.39-3.12-8.36-9.42-8.36-17.75V626c0-6-1.87-10.39-5.25-12.35s-8.13-1.37-13.31,1.63l-16,9.23a3.13,3.13,0,1,1-3.13-5.41l16-9.23c7.22-4.16,14.17-4.73,19.56-1.62s8.37,9.41,8.37,17.75v18.45c0,6,1.86,10.39,5.25,12.34s8.11,1.38,13.31-1.63L1023.71,611a3.13,3.13,0,0,1,3.13,5.41l-76.51,44.18A24.29,24.29,0,0,1,938.38,664.21Z" transform="translate(444.31 513.65)"/><path class="cls-2" d="M968.13,681.33a15.08,15.08,0,0,1-7.61-2c-5.39-3.11-8.36-9.42-8.36-17.75V643.15c0-6-1.87-10.39-5.25-12.34s-8.12-1.37-13.32,1.62l-16,9.23a3.13,3.13,0,1,1-3.13-5.41l16-9.23c7.22-4.16,14.17-4.74,19.56-1.62s8.37,9.42,8.37,17.75V661.6c0,6,1.86,10.39,5.25,12.34s8.1,1.38,13.31-1.62l76.52-44.18a3.12,3.12,0,1,1,3.11,5.41l-76.51,44.17A24.18,24.18,0,0,1,968.13,681.33Z" transform="translate(444.31 513.65)"/><path class="cls-2" d="M997.9,698.45a14.93,14.93,0,0,1-7.61-2c-5.4-3.12-8.37-9.42-8.37-17.75V660.27c0-6-1.87-10.39-5.25-12.35s-8.12-1.38-13.31,1.64l-16,9.22a3.13,3.13,0,1,1-3.13-5.41l16-9.23c7.23-4.16,14.17-4.74,19.56-1.62s8.37,9.41,8.37,17.75v18.45c0,6,1.87,10.39,5.25,12.34s8.11,1.37,13.32-1.63l76.5-44.17a3.13,3.13,0,0,1,3.13,5.41l-76.51,44.18A24.29,24.29,0,0,1,997.9,698.45Z" transform="translate(444.31 513.65)"/><polygon class="cls-3" points="1404 1176.36 1404 1244.3 816.05 1583.75 228.08 1244.29 228.08 1176.35 1404 1176.36"/><polygon class="cls-4" points="816.05 1515.81 228.08 1176.35 816.03 836.89 1404 1176.36 816.05 1515.81"/><polygon class="cls-5" points="816.05 1507.87 234.96 1172.38 228.08 1176.35 816.05 1515.81 1404 1176.36 1397.13 1172.39 816.05 1507.87"/><polygon class="cls-6" points="816.05 1437.51 363.82 1176.42 816.03 915.34 1268.26 1176.43 816.05 1437.51"/><polygon class="cls-7" points="816.05 1437.52 363.81 1176.42 816.03 915.34 1268.27 1176.43 816.05 1437.52"/><polygon class="cls-8" points="816.03 849.5 1268.27 1110.59 1268.27 1176.43 816.03 915.33 816.03 849.5"/><polygon class="cls-9" points="816.05 915.33 363.81 1176.42 363.81 1110.59 816.03 849.5 816.05 915.33"/><polygon class="cls-10" points="816.05 1371.68 363.81 1110.59 816.03 849.5 1268.27 1110.59 816.05 1371.68"/><polygon class="cls-11" points="816.04 1214.92 635.34 1110.59 816.04 1006.26 996.74 1110.59 816.04 1214.92"/><polygon class="cls-11" points="816.04 1015.86 988.43 1115.39 996.74 1110.59 816.04 1006.26 635.34 1110.59 643.65 1115.39 816.04 1015.86"/><polygon class="cls-12" points="816.05 1371.68 816.05 1437.52 1268.27 1176.43 1268.27 1110.59 816.05 1371.68"/><polygon class="cls-13" points="363.81 1110.59 363.81 1176.42 816.05 1437.52 816.05 1371.68 363.81 1110.59"/><polygon class="cls-14" points="816.05 1364.5 370.04 1106.99 363.81 1110.59 816.05 1371.68 1268.27 1110.59 1262.05 1107 816.05 1364.5"/><path class="cls-2" d="M519.35,1152a3.1,3.1,0,0,1-1.55-.41l-76.51-44.17c-13.92-8-24.81-26.91-24.81-43V1046c0-13.81-9.73-30.65-21.69-37.55l-16-9.22a3.13,3.13,0,0,1,3.13-5.42l16,9.23c13.9,8,24.8,26.9,24.8,43v18.46c0,13.8,9.73,30.65,21.69,37.55l76.5,44.17a3.12,3.12,0,0,1-1.56,5.83Z" transform="translate(444.31 513.65)"/><path class="cls-2" d="M549.11,1134.9a3.21,3.21,0,0,1-1.56-.42L471,1090.3c-13.91-8-24.8-26.89-24.8-43v-18.46c0-13.8-9.73-30.65-21.69-37.55l-16-9.23a3.13,3.13,0,0,1,3.13-5.41l16,9.23c13.91,8,24.8,26.9,24.8,43v18.46c0,13.81,9.73,30.65,21.68,37.55l76.52,44.18a3.13,3.13,0,0,1-1.57,5.83Z" transform="translate(444.31 513.65)"/><path class="cls-2" d="M578.87,1117.75a3.21,3.21,0,0,1-1.56-.42l-76.51-44.18c-13.91-8-24.8-26.9-24.8-43v-18.45c0-13.81-9.73-30.65-21.69-37.57l-16-9.21a3.12,3.12,0,0,1,3.11-5.42l16,9.23c13.92,8,24.81,26.91,24.81,43v18.45c0,13.8,9.73,30.65,21.68,37.55l76.52,44.18a3.13,3.13,0,0,1-1.57,5.83Z" transform="translate(444.31 513.65)"/><path class="cls-2" d="M608.63,1100.6a3.1,3.1,0,0,1-1.56-.42L530.56,1056c-13.91-8-24.81-26.91-24.81-43V994.59c0-13.81-9.72-30.66-21.68-37.56l-16-9.22a3.13,3.13,0,0,1,3.12-5.42l16,9.23c13.91,8,24.81,26.91,24.81,43V1013c0,13.81,9.73,30.65,21.68,37.55l76.52,44.18a3.12,3.12,0,0,1-1.57,5.83Z" transform="translate(444.31 513.65)"/><path class="cls-2" d="M638.39,1083.45a3.08,3.08,0,0,1-1.56-.42l-76.51-44.17c-13.91-8-24.81-26.91-24.81-43V977.43c0-13.8-9.73-30.64-21.68-37.55l-16-9.22a3.13,3.13,0,1,1,3.12-5.42l16,9.23c13.91,8,24.81,26.91,24.81,43v18.46c0,13.8,9.73,30.65,21.68,37.55L640,1077.62a3.13,3.13,0,0,1-1.57,5.83Z" transform="translate(444.31 513.65)"/><path class="cls-2" d="M668.15,1066.3a3.11,3.11,0,0,1-1.55-.42l-76.52-44.17c-13.91-8-24.8-26.91-24.8-43V960.29c0-13.81-9.73-30.66-21.69-37.55l-16-9.23a3.13,3.13,0,0,1,3.13-5.41l16,9.22c13.9,8,24.8,26.9,24.8,43v18.45c0,13.8,9.73,30.65,21.69,37.56l76.5,44.17a3.12,3.12,0,0,1-1.56,5.83Z" transform="translate(444.31 513.65)"/><path class="cls-2" d="M697.91,1049.15a3.17,3.17,0,0,1-1.56-.41l-76.51-44.18c-13.91-8-24.8-26.9-24.8-43V943.14c0-13.81-9.73-30.66-21.69-37.55l-16-9.23a3.13,3.13,0,0,1,3.13-5.42l16,9.23c13.9,8,24.8,26.9,24.8,43v18.45c0,13.81,9.73,30.66,21.68,37.56l76.52,44.17a3.13,3.13,0,0,1-1.57,5.83Z" transform="translate(444.31 513.65)"/><path class="cls-2" d="M727.67,1032a3.1,3.1,0,0,1-1.56-.42L649.6,987.41c-13.91-8-24.8-26.9-24.8-43V926c0-13.8-9.73-30.65-21.69-37.56l-16-9.22a3.13,3.13,0,0,1,3.13-5.42l16,9.23c13.91,8,24.8,26.92,24.8,43v18.45c0,13.81,9.73,30.66,21.68,37.55l76.52,44.18a3.13,3.13,0,0,1-1.57,5.83Z" transform="translate(444.31 513.65)"/><path class="cls-2" d="M757.43,1014.85a3,3,0,0,1-1.55-.42l-76.52-44.17c-13.91-8-24.8-26.91-24.8-43V908.84c0-13.8-9.73-30.65-21.69-37.55l-16-9.23a3.13,3.13,0,0,1,3.13-5.41l16,9.23c13.91,8,24.8,26.9,24.8,43v18.45c0,13.81,9.73,30.66,21.68,37.56L759,1009a3.13,3.13,0,0,1-1.57,5.83Z" transform="translate(444.31 513.65)"/><path class="cls-2" d="M787.19,997.7a3.19,3.19,0,0,1-1.56-.41l-76.51-44.18c-13.91-8-24.81-26.9-24.81-43V891.69c0-13.8-9.72-30.66-21.68-37.55l-16-9.23a3.12,3.12,0,1,1,3.12-5.41l16,9.22c13.91,8,24.81,26.91,24.81,43v18.46c0,13.8,9.73,30.64,21.68,37.55l76.52,44.17a3.12,3.12,0,0,1-1.57,5.83Z" transform="translate(444.31 513.65)"/><path class="cls-2" d="M817,980.55a3.17,3.17,0,0,1-1.56-.41L738.88,936c-13.91-8-24.81-26.91-24.81-43V874.54c0-13.8-9.73-30.65-21.68-37.55l-16-9.23a3.12,3.12,0,1,1,3.12-5.41l16,9.22c13.91,8,24.81,26.91,24.81,43V893c0,13.81,9.73,30.65,21.69,37.56l76.51,44.17a3.13,3.13,0,0,1-1.57,5.83Z" transform="translate(444.31 513.65)"/><path class="cls-2" d="M846.71,963.4a3,3,0,0,1-1.55-.42l-76.52-44.17c-13.91-8-24.8-26.91-24.8-43V857.39c0-13.81-9.73-30.65-21.69-37.55l-16-9.23a3.13,3.13,0,0,1,3.13-5.41l16,9.23c13.9,8,24.8,26.9,24.8,43v18.45c0,13.81,9.73,30.66,21.69,37.56l76.5,44.17a3.12,3.12,0,0,1-1.56,5.83Z" transform="translate(444.31 513.65)"/><path class="cls-2" d="M876.47,946.25a3.17,3.17,0,0,1-1.56-.41L798.4,901.66c-13.91-8-24.8-26.9-24.8-43V840.24c0-13.81-9.73-30.65-21.69-37.55l-16-9.23a3.13,3.13,0,0,1,3.13-5.41l16,9.23c13.9,8,24.8,26.89,24.8,43V858.7c0,13.81,9.73,30.65,21.68,37.55L878,940.43a3.12,3.12,0,0,1-1.57,5.82Z" transform="translate(444.31 513.65)"/><path class="cls-2" d="M906.23,929.1a3.19,3.19,0,0,1-1.56-.41l-76.51-44.18c-13.91-8-24.8-26.9-24.8-43V823.1c0-13.81-9.73-30.66-21.69-37.57l-16-9.21a3.12,3.12,0,0,1,3.11-5.42l16,9.22c13.92,8,24.81,26.91,24.81,43v18.45c0,13.81,9.73,30.65,21.68,37.55l76.52,44.17a3.13,3.13,0,0,1-1.57,5.83Z" transform="translate(444.31 513.65)"/><path class="cls-2" d="M936,912a3.13,3.13,0,0,1-1.55-.41l-76.51-44.18c-13.92-8-24.81-26.91-24.81-43V805.94c0-13.8-9.73-30.65-21.69-37.55l-16-9.23a3.13,3.13,0,1,1,3.13-5.41l16,9.23c13.91,8,24.8,26.9,24.8,43v18.45c0,13.81,9.73,30.66,21.69,37.57l76.51,44.16A3.13,3.13,0,0,1,936,912Z" transform="translate(444.31 513.65)"/><path class="cls-2" d="M965.75,894.81a3.21,3.21,0,0,1-1.56-.42l-76.51-44.18c-13.91-8-24.8-26.9-24.8-43V788.79c0-13.8-9.73-30.65-21.69-37.55l-16-9.23a3.13,3.13,0,0,1,3.13-5.41l16,9.23c13.91,8,24.8,26.9,24.8,43v18.46c0,13.8,9.73,30.65,21.68,37.55L967.32,889a3.12,3.12,0,0,1-1.57,5.83Z" transform="translate(444.31 513.65)"/><path class="cls-2" d="M995.51,877.65a3.13,3.13,0,0,1-1.55-.41l-76.52-44.18c-13.91-8-24.81-26.9-24.81-43V771.65c0-13.81-9.72-30.66-21.68-37.57l-16-9.21a3.13,3.13,0,0,1,3.12-5.42l16,9.23c13.9,8,24.8,26.91,24.8,43V790.1c0,13.8,9.73,30.65,21.69,37.55l76.51,44.18a3.13,3.13,0,0,1,1.15,4.27A3.17,3.17,0,0,1,995.51,877.65Z" transform="translate(444.31 513.65)"/><path class="cls-2" d="M1025.27,860.5a3.1,3.1,0,0,1-1.55-.41l-76.51-44.17c-13.92-8-24.81-26.92-24.81-43V754.5c0-13.81-9.73-30.66-21.69-37.56l-16-9.22a3.13,3.13,0,0,1,3.13-5.42l16,9.23c13.9,8,24.8,26.9,24.8,43V773c0,13.8,9.73,30.65,21.69,37.56l76.5,44.16a3.12,3.12,0,0,1-1.56,5.83Z" transform="translate(444.31 513.65)"/><path class="cls-2" d="M1055,843.36a3.08,3.08,0,0,1-1.56-.42L977,798.77c-13.91-8-24.8-26.9-24.8-43V737.34c0-13.81-9.73-30.65-21.69-37.55l-16-9.23a3.13,3.13,0,0,1,3.13-5.41l16,9.23c13.9,8,24.8,26.9,24.8,43V755.8c0,13.81,9.73,30.66,21.68,37.55l76.52,44.18a3.13,3.13,0,0,1-1.57,5.83Z" transform="translate(444.31 513.65)"/><path class="cls-2" d="M1084.79,826.21a3.21,3.21,0,0,1-1.56-.42l-76.51-44.18c-13.91-8-24.8-26.89-24.8-43V720.2c0-13.81-9.73-30.66-21.69-37.56l-16-9.22a3.12,3.12,0,1,1,3.11-5.41l16,9.22c13.92,8,24.81,26.91,24.81,43v18.45c0,13.81,9.73,30.65,21.68,37.55l76.52,44.18a3.13,3.13,0,0,1-1.57,5.83Z" transform="translate(444.31 513.65)"/><path class="cls-2" d="M222,1152a3.13,3.13,0,0,1-1.56-5.83L297,1102c12-6.9,21.69-23.75,21.69-37.55V1046c0-16.06,10.89-34.93,24.8-43l16-9.23a3.13,3.13,0,0,1,3.13,5.42l-16,9.22c-11.95,6.9-21.68,23.75-21.68,37.55v18.46c0,16.06-10.89,34.93-24.8,43l-76.52,44.18A3.14,3.14,0,0,1,222,1152Z" transform="translate(444.31 513.65)"/><path class="cls-2" d="M192.26,1134.9a3.13,3.13,0,0,1-1.56-5.83l76.51-44.18c12-6.9,21.69-23.75,21.69-37.55v-18.46c0-16.06,10.89-34.93,24.8-43l16-9.23a3.13,3.13,0,1,1,3.13,5.41l-16,9.23c-12,6.9-21.69,23.75-21.69,37.55v18.46c0,16.06-10.89,34.93-24.81,43l-76.51,44.18A3.12,3.12,0,0,1,192.26,1134.9Z" transform="translate(444.31 513.65)"/><path class="cls-2" d="M162.5,1117.75a3.13,3.13,0,0,1-1.56-5.83l76.51-44.18c12-6.9,21.69-23.75,21.69-37.55v-18.45c0-16.06,10.89-34.93,24.8-43l16-9.23A3.13,3.13,0,0,1,303,965l-16,9.22c-11.95,6.9-21.68,23.75-21.68,37.56v18.45c0,16.06-10.9,34.93-24.8,43l-76.52,44.18A3.15,3.15,0,0,1,162.5,1117.75Z" transform="translate(444.31 513.65)"/><path class="cls-2" d="M132.74,1100.6a3.13,3.13,0,0,1-1.56-5.83l76.51-44.18c12-6.89,21.69-23.74,21.69-37.55V994.59c0-16.06,10.89-34.94,24.8-43l16-9.23a3.13,3.13,0,0,1,3.13,5.42l-16,9.22c-12,6.9-21.68,23.75-21.68,37.56V1013c0,16.06-10.89,34.93-24.81,43l-76.51,44.17A3,3,0,0,1,132.74,1100.6Z" transform="translate(444.31 513.65)"/><path class="cls-2" d="M103,1083.45a3.13,3.13,0,0,1-1.56-5.83l76.51-44.18c12-6.89,21.69-23.75,21.69-37.55V977.43c0-16,10.89-34.92,24.8-42.95l16-9.24a3.13,3.13,0,0,1,3.13,5.42l-16,9.22c-12,6.91-21.69,23.76-21.69,37.55v18.46c0,16.06-10.89,34.93-24.81,43L104.54,1083A3,3,0,0,1,103,1083.45Z" transform="translate(444.31 513.65)"/><path class="cls-2" d="M73.22,1066.3a3.13,3.13,0,0,1-1.56-5.83l76.51-44.17c12-6.91,21.69-23.76,21.69-37.56V960.29c0-16.06,10.89-34.93,24.8-43l16-9.22a3.12,3.12,0,1,1,3.12,5.41l-16,9.23c-11.95,6.89-21.68,23.75-21.68,37.55v18.45c0,16.06-10.9,34.93-24.8,43l-76.52,44.18A3.15,3.15,0,0,1,73.22,1066.3Z" transform="translate(444.31 513.65)"/><path class="cls-2" d="M43.46,1049.15a3.13,3.13,0,0,1-1.56-5.83l76.51-44.17c12-6.9,21.69-23.75,21.69-37.56V943.14c0-16.06,10.89-34.93,24.8-43l16-9.23a3.13,3.13,0,0,1,3.13,5.42l-16,9.23c-12,6.89-21.68,23.74-21.68,37.55v18.45c0,16.06-10.89,34.94-24.81,43L45,1048.74A3.14,3.14,0,0,1,43.46,1049.15Z" transform="translate(444.31 513.65)"/><path class="cls-2" d="M13.7,1032a3.13,3.13,0,0,1-1.56-5.83L88.65,982c12-6.89,21.69-23.74,21.69-37.55V926c0-16.06,10.89-34.93,24.8-43l16-9.24a3.13,3.13,0,0,1,3.13,5.42l-16,9.22c-12,6.91-21.69,23.76-21.69,37.56v18.45c0,16.06-10.89,34.93-24.81,43l-76.51,44.17A3,3,0,0,1,13.7,1032Z" transform="translate(444.31 513.65)"/><path class="cls-2" d="M-16.06,1014.85a3.09,3.09,0,0,1-2.7-1.57,3.11,3.11,0,0,1,1.14-4.26l76.51-44.17c12-6.9,21.69-23.75,21.69-37.56V908.84c0-16.06,10.89-34.93,24.8-43l16-9.23a3.12,3.12,0,1,1,3.12,5.41l-16,9.23c-12,6.9-21.68,23.75-21.68,37.55v18.45c0,16.06-10.9,34.93-24.8,43l-76.52,44.17A3,3,0,0,1-16.06,1014.85Z" transform="translate(444.31 513.65)"/><path class="cls-2" d="M-45.82,997.7a3.1,3.1,0,0,1-2.7-1.56,3.12,3.12,0,0,1,1.14-4.27L29.13,947.7c12-6.9,21.69-23.75,21.69-37.55V891.69c0-16.06,10.89-34.93,24.8-43l16-9.22a3.13,3.13,0,1,1,3.13,5.41l-16,9.23C66.79,861,57.06,877.89,57.06,891.69v18.46c0,16.06-10.89,34.93-24.81,43l-76.51,44.18A3.14,3.14,0,0,1-45.82,997.7Z" transform="translate(444.31 513.65)"/><path class="cls-2" d="M-75.58,980.55a3.1,3.1,0,0,1-2.7-1.56,3.13,3.13,0,0,1,1.14-4.27L-.63,930.55c12-6.9,21.69-23.75,21.69-37.56V874.54c0-16.06,10.89-34.93,24.8-43l16-9.23A3.13,3.13,0,0,1,65,827.76L49,837c-12,6.9-21.69,23.75-21.69,37.55V893c0,16.06-10.89,34.94-24.81,43L-74,980.14A3.11,3.11,0,0,1-75.58,980.55Z" transform="translate(444.31 513.65)"/><path class="cls-2" d="M-105.34,963.4a3.1,3.1,0,0,1-2.7-1.56,3.12,3.12,0,0,1,1.14-4.27l76.51-44.17c12-6.9,21.69-23.75,21.69-37.56V857.39c0-16.06,10.89-34.93,24.8-43l16-9.23a3.12,3.12,0,1,1,3.12,5.41l-16,9.23c-11.95,6.9-21.68,23.75-21.68,37.55v18.45c0,16.06-10.9,34.93-24.8,43L-103.78,963A3,3,0,0,1-105.34,963.4Z" transform="translate(444.31 513.65)"/><path class="cls-2" d="M-135.1,946.25a3.11,3.11,0,0,1-2.7-1.55,3.11,3.11,0,0,1,1.14-4.27l76.51-44.18c12-6.9,21.69-23.75,21.69-37.55V840.24c0-16.06,10.89-34.93,24.8-43l16-9.23a3.12,3.12,0,1,1,3.12,5.41l-16,9.23c-11.95,6.9-21.68,23.75-21.68,37.55V858.7c0,16.06-10.89,34.93-24.81,43l-76.51,44.18A3.14,3.14,0,0,1-135.1,946.25Z" transform="translate(444.31 513.65)"/><path class="cls-2" d="M-164.86,929.1a3.1,3.1,0,0,1-2.7-1.56,3.13,3.13,0,0,1,1.14-4.27l76.51-44.17c12-6.9,21.69-23.75,21.69-37.55V823.1c0-16.07,10.89-34.94,24.8-43l16-9.23a3.14,3.14,0,0,1,4.27,1.15,3.13,3.13,0,0,1-1.14,4.27l-16,9.22c-12,6.9-21.69,23.75-21.69,37.56v18.45c0,16.06-10.89,34.93-24.81,43l-76.51,44.18A3.11,3.11,0,0,1-164.86,929.1Z" transform="translate(444.31 513.65)"/><path class="cls-2" d="M-194.62,912a3.1,3.1,0,0,1-2.7-1.56,3.12,3.12,0,0,1,1.14-4.27L-119.67,862c12-6.9,21.69-23.75,21.69-37.56V805.94c0-16.06,10.89-34.93,24.8-43l16-9.23a3.13,3.13,0,0,1,4.27,1.14,3.12,3.12,0,0,1-1.15,4.27l-16,9.23c-12,6.9-21.68,23.75-21.68,37.55v18.45c0,16.06-10.9,34.94-24.81,43l-76.51,44.18A3.14,3.14,0,0,1-194.62,912Z" transform="translate(444.31 513.65)"/><path class="cls-2" d="M-224.38,894.81a3.1,3.1,0,0,1-2.7-1.56,3.11,3.11,0,0,1,1.14-4.27l76.51-44.18c12-6.9,21.68-23.75,21.68-37.55V788.79c0-16.06,10.9-34.93,24.81-43l16-9.23a3.13,3.13,0,0,1,4.27,1.14A3.12,3.12,0,0,1-83.84,742l-16,9.23c-12,6.9-21.68,23.75-21.68,37.55v18.46c0,16.06-10.9,34.93-24.81,43l-76.51,44.18A3.15,3.15,0,0,1-224.38,894.81Z" transform="translate(444.31 513.65)"/><path class="cls-2" d="M-254.14,877.65a3.14,3.14,0,0,1-2.71-1.55,3.12,3.12,0,0,1,1.15-4.27l76.51-44.18c12-6.9,21.69-23.75,21.69-37.55V771.65c0-16.06,10.89-34.93,24.8-43l16-9.23a3.14,3.14,0,0,1,4.27,1.15,3.13,3.13,0,0,1-1.15,4.27l-16,9.22c-11.95,6.9-21.68,23.75-21.68,37.56V790.1c0,16.06-10.89,34.93-24.81,43l-76.51,44.18A3.14,3.14,0,0,1-254.14,877.65Z" transform="translate(444.31 513.65)"/><path class="cls-2" d="M-283.9,860.5a3.1,3.1,0,0,1-2.7-1.56,3.12,3.12,0,0,1,1.14-4.27l76.51-44.17c12-6.9,21.68-23.75,21.68-37.55V754.5c0-16.07,10.9-34.94,24.81-43l16-9.23a3.14,3.14,0,0,1,4.27,1.15,3.13,3.13,0,0,1-1.15,4.27l-16,9.22c-11.95,6.9-21.68,23.75-21.68,37.56V773c0,16.06-10.9,34.93-24.81,43l-76.51,44.18A3.14,3.14,0,0,1-283.9,860.5Z" transform="translate(444.31 513.65)"/><path class="cls-2" d="M-313.66,843.36a3.1,3.1,0,0,1-2.7-1.56,3.11,3.11,0,0,1,1.14-4.27l76.51-44.18c12-6.89,21.68-23.75,21.68-37.55V737.34c0-16.06,10.9-34.93,24.81-43l16-9.23a3.14,3.14,0,0,1,4.27,1.14,3.12,3.12,0,0,1-1.15,4.27l-16,9.23c-12,6.9-21.68,23.75-21.68,37.55V755.8c0,16.06-10.9,34.93-24.81,43l-76.51,44.17A3,3,0,0,1-313.66,843.36Z" transform="translate(444.31 513.65)"/><path class="cls-2" d="M-343.42,826.21a3.13,3.13,0,0,1-2.71-1.56,3.12,3.12,0,0,1,1.15-4.27l76.51-44.18c12-6.9,21.69-23.75,21.69-37.55V720.2c0-16.06,10.89-34.93,24.8-43l16-9.22a3.12,3.12,0,0,1,4.27,1.14,3.13,3.13,0,0,1-1.15,4.27l-16,9.22c-11.95,6.9-21.68,23.75-21.68,37.56v18.45c0,16.06-10.9,34.93-24.81,43l-76.51,44.18A3.15,3.15,0,0,1-343.42,826.21Z" transform="translate(444.31 513.65)"/><g class="cls-15"><path class="cls-16" d="M924.56-275.07c5.28,29.84,27.42,104.85,118.76,156.74,130,60,220.07,139,250.25,227.1a205.23,205.23,0,0,0,7.84,19c3.24-5.34,3.24-5.34,3.26-18.26v-148c-.06-86.87-4.93-106-11.1-130.27-30.18-88.13-120.24-167.06-250.25-227.1-103.73-33.48-128.84,63.77-118.76,120.77Z" transform="translate(444.31 513.65)"/><path class="cls-16" d="M-28.87-452.6c137.66-39.93,300.5-62.41,474.31-61q34.4.29,68.11,1.79c152.61,13.94,206.89,175.11,114.88,245.63-42.23,32.37-93.14,32-114.88,31.88q-33.69-1.5-68.11-1.79c-173.81-1.42-336.65,21.06-474.31,61-139,33.86-147.2-107.39-98.59-193.79,16.35-29.06,46.72-67.17,98.59-83.72Z" transform="translate(444.31 513.65)"/><path class="cls-16" d="M-444.31,174.55c3.79-44,6.78-78.73,51.56-139.37,94.41-139.31,75.35-301.21,23.2-293.74-8.41,1.21-17.15,10.27-23.2,16.23-31.69,41.31-49.7,85.72-51.43,132.06q-.13,3.66-.13,7.31V174.55Z" transform="translate(444.31 513.65)"/></g><rect class="cls-16" x="710.34" y="204.68" width="32.42" height="276.8" transform="translate(368.67 811.29) rotate(-22.03)"/><circle class="cls-17" cx="118.54" cy="89.19" r="100.75" transform="translate(414.7 595.14) rotate(-33.98)"/><path class="cls-18" d="M638.78,238.22c0,195.57-116.46,354.11-260.12,354.11S118.54,433.79,118.54,238.22,235-15.95,378.66-15.95,638.78,42.65,638.78,238.22Z" transform="translate(444.31 513.65)"/><g class="cls-19"><path class="cls-20" d="M638.78,238.22c0,195.57-116.46,354.11-260.12,354.11S118.54,433.79,118.54,238.22,235-15.95,378.66-15.95,638.78,42.65,638.78,238.22Z" transform="translate(444.31 513.65)"/></g><ellipse class="cls-21" cx="822.97" cy="602.85" rx="177.53" ry="102.5"/><path class="cls-22" d="M253.13,44C322.46,4,434.86,4,504.19,44c28.64,16.54,45.41,37.31,50.39,58.83,7.08-30.57-9.69-62.64-50.39-86.13-69.33-40-181.73-40-251.06,0-40.7,23.49-57.47,55.55-50.39,86.12C207.72,81.33,224.49,60.55,253.13,44Z" transform="translate(444.31 513.65)"/><path class="cls-23" d="M173.74-154.37l32.12-55.34a179,179,0,0,0,41.65-71.77l32.53-56-46.78-26.86a36.32,36.32,0,0,0-4.69-2.7h0c-13.3-6.3-31-4.61-50.38,6.59-41.35,23.88-74.88,81.94-74.88,129.69,0,23.86,8.37,40.63,21.91,48.46h0Z" transform="translate(444.31 513.65)"/><ellipse class="cls-4" cx="226.34" cy="-246.27" rx="105.89" ry="61.14" transform="translate(770.75 586.53) rotate(-60)"/><circle class="cls-24" cx="388.98" cy="-155.45" r="265.3" transform="translate(668.16 743.17) rotate(-45)"/><g class="cls-19"><circle class="cls-25" cx="388.98" cy="-155.45" r="265.3" transform="translate(668.16 743.17) rotate(-45)"/></g><path class="cls-26" d="M537.44,24l32.12-55.34a179.06,179.06,0,0,0,41.66-71.77l32.52-56L597-186a36.43,36.43,0,0,0-4.7-2.7h0c-13.3-6.3-31-4.61-50.38,6.59C500.51-158.28,467-100.22,467-52.47,467-28.61,475.36-11.84,488.9-4h0Z" transform="translate(444.31 513.65)"/><ellipse class="cls-4" cx="590.04" cy="-67.93" rx="105.89" ry="61.14" transform="translate(798.15 990.67) rotate(-60)"/><path class="cls-5" d="M518.6-24.09c0-47.75,33.52-105.81,74.88-129.69,14.33-8.27,27.71-11.35,39.09-9.86-12.08-2.67-26.73.12-42.53,9.25-41.35,23.87-74.88,81.94-74.88,129.69,0,31.2,14.32,50.27,35.79,53.08C531.41,24.06,518.6,5.42,518.6-24.09Z" transform="translate(444.31 513.65)"/><ellipse class="cls-21" cx="590.04" cy="-67.93" rx="75.69" ry="43.7" transform="translate(798.15 990.67) rotate(-60)"/><path class="cls-22" d="M620.79-136.26c5.54,6.54,8.77,16.31,8.77,28.83,0,34.13-24,75.63-53.52,92.7-11.45,6.61-22,8.56-30.75,6.52,9.56,11.29,26,12.88,44.75,2.08C619.6-23.2,643.56-64.7,643.56-98.84,643.56-119.75,634.56-133,620.79-136.26Z" transform="translate(444.31 513.65)"/><ellipse class="cls-21" cx="230.53" cy="-87.65" rx="67.36" ry="116.67" transform="translate(495.7 595.52) rotate(-22.6)"/><path class="cls-16" d="M271.69-75c-2.46,19-16.77,24.91-32,13.3s-25.5-36.4-23-55.36,16.77-24.92,32-13.3S274.16-93.92,271.69-75Z" transform="translate(444.31 513.65)"/><path class="cls-22" d="M238.33-.79c-41.8-32-70.18-100.16-63.41-152.33,2.77-21.27,11-36.59,22.5-45.11-21.85,2.06-38.39,20.59-42.56,52.71-6.78,52.18,21.61,120.38,63.4,152.33C243,25.74,266.92,27.7,283.71,15.32,270.08,16.6,254.39,11.49,238.33-.79Z" transform="translate(444.31 513.65)"/><path class="cls-16" d="M221.86,5.11C180.06-26.84,151.68-95,158.45-147.21c3.14-24.16,13.27-40.62,27.39-48.18-16,6.58-27.58,23.72-31,49.87-6.78,52.18,21.61,120.38,63.4,152.33C240.7,24,262.42,27.14,278.79,18.37,262.9,24.91,242.69,21,221.86,5.11Z" transform="translate(444.31 513.65)"/><circle class="cls-27" cx="674.63" cy="214.8" r="100.75" transform="translate(490.03 1053.6) rotate(-45)"/><g class="cls-19"><circle class="cls-28" cx="674.63" cy="214.8" r="100.75" transform="translate(490.03 1053.6) rotate(-45)"/></g><path class="cls-29" d="M835.32,548.6c-5.71,47.87-48,138.55-86.26,134s-58-102.64-52.32-150.52,41.37-83,79.63-78.41S841,500.73,835.32,548.6Z" transform="translate(444.31 513.65)"/><path class="cls-30" d="M835.32,548.6c-5.71,47.87-48,138.55-86.26,134s-58-102.64-52.32-150.52,41.37-83,79.63-78.41S841,500.73,835.32,548.6Z" transform="translate(444.31 513.65)"/><path class="cls-16" d="M-148,240.59a16.22,16.22,0,0,1-14.38-8.7A16.21,16.21,0,0,1-155.58,210l208-108.86a16.21,16.21,0,0,1,15,28.73l-208,108.86A16.21,16.21,0,0,1-148,240.59Z" transform="translate(444.31 513.65)"/><path class="cls-31" d="M-144.39,301c-42.28,23.17-140.64,41.46-159.17,7.67s49.81-106.87,92.09-130,91.56-14.57,110.09,19.23S-102.11,277.84-144.39,301Z" transform="translate(444.31 513.65)"/><path class="cls-32" d="M-144.39,301c-42.28,23.17-140.64,41.46-159.17,7.67s49.81-106.87,92.09-130,91.56-14.57,110.09,19.23S-102.11,277.84-144.39,301Z" transform="translate(444.31 513.65)"/><g class="cls-33"><path class="cls-16" d="M-342.66,255.9c-6.33,50.94-32.75,81.25-60.52,43.3-35.61-48.66-39.07-96.23-41.13-124.65V-103c0,43.41,14.41,85.3,41.13,124.65,58.7,97.09,65.66,192.9,60.52,234.21Z" transform="translate(444.31 513.65)"/><path class="cls-16" d="M481.23,306.76q-32.85.89-66.31.62c-174.49-1.43-336.14-26.76-471-69.22-134.77-36-142.91,105-95.88,192.11,33.49,62,78.81,79,95.88,85.4,134.91,42.47,296.56,67.79,471.05,69.22q33.43.27,66.31-.62C639.58,572.6,681.05,420.52,607,349.53c-20.65-19.81-59.24-43.31-125.81-42.77Z" transform="translate(444.31 513.65)"/><path class="cls-16" d="M1304.53,85.5c-.76,120-7.81,141.85-16.73,169.5-37.09,87.51-133.28,164.82-267.93,222.57C902,512.35,869.43,389.86,917.37,299c32.62-61.79,83.39-88.81,102.5-99C1154.52,142.31,1250.71,65,1287.8-22.51c2.72-5.8,6.56-13.5,10.19-18.79l3-.39c2.28,6.41,3.22,9.07,3.52,41.83V85.5Z" transform="translate(444.31 513.65)"/></g></g></g></svg>