<svg id="Layer_1" data-name="Layer 1" xmlns="http://www.w3.org/2000/svg" viewBox="0 0 1693.52 1611.44"><defs><style>.cls-1{fill:#f0e6ff;}.cls-2{fill:#502a87;}.cls-3{fill:#66379e;}.cls-13,.cls-15,.cls-19,.cls-21,.cls-4,.cls-9{fill:#fff;}.cls-5{fill:#1bc9d9;}.cls-6{fill:#21e0b6;}.cls-7{fill:#f0526c;}.cls-8{fill:#18b0b7;}.cls-9{font-size:111.5px;}.cls-13,.cls-15,.cls-19,.cls-21,.cls-9{font-family:FreeSansBold, FreeSans;}.cls-10{letter-spacing:-0.01em;}.cls-11{letter-spacing:-0.01em;}.cls-12{fill:#e03d5c;}.cls-13{font-size:99.4px;}.cls-14{letter-spacing:-0.03em;}.cls-15{font-size:112.76px;}.cls-16{letter-spacing:-0.03em;}.cls-17{letter-spacing:-0.02em;}.cls-18{letter-spacing:-0.02em;}.cls-19{font-size:136.22px;}.cls-20{fill:#19bf97;}.cls-21{font-size:131.42px;letter-spacing:-0.01em;}.cls-22{letter-spacing:-0.02em;}.cls-23{letter-spacing:0em;}</style></defs><title>web</title><path class="cls-1" d="M628.23,332.47a354,354,0,0,1-69.37-28.78l-76.52,47.06L369,237.48l47.06-76.54a354.6,354.6,0,0,1-28.78-69.37L300,70.72V-89.47l87.33-20.84a353.84,353.84,0,0,1,28.78-69.37L369-256.21l113.3-113.3,76.52,47.07a354.21,354.21,0,0,1,69.37-28.8l20.84-87.33H809.29l20.82,87.33a354.55,354.55,0,0,1,69.38,28.8L976-369.51l113.3,113.3-47.06,76.53A354.75,354.75,0,0,1,1071-110.31l87.33,20.84V70.72L1071,91.57a355.77,355.77,0,0,1-28.78,69.37l47.06,76.54L976,350.75l-76.52-47.06a353.82,353.82,0,0,1-69.38,28.78l-20.82,87.35H649.07ZM806.84,310l8-2.16a326.81,326.81,0,0,0,78-32.36l7.18-4.14,71.83,44.16,82.2-82.21-44.14-71.83,4.12-7.17a327.45,327.45,0,0,0,32.36-78l2.16-8,82-19.54V-67.51l-82-19.54-2.16-8a327.32,327.32,0,0,0-32.35-78l-4.13-7.17,44.14-71.84-82.2-82.21-71.83,44.17-7.18-4.14a327.11,327.11,0,0,0-78-32.37l-8-2.16-19.53-81.95H671l-19.54,81.95-8,2.16a327,327,0,0,0-78,32.37l-7.18,4.14-71.83-44.17-82.21,82.21,44.16,71.84-4.14,7.17a326.78,326.78,0,0,0-32.35,78l-2.16,8-82,19.54V48.76l82,19.54,2.16,8a327.12,327.12,0,0,0,32.35,78l4.13,7.17-44.15,71.83,82.21,82.21,71.83-44.16,7.18,4.14a326.81,326.81,0,0,0,78,32.36l8,2.16L671,392H787.31ZM451.59-9.38C451.59-162.44,576.12-287,729.17-287S1006.76-162.44,1006.76-9.38,882.23,268.2,729.17,268.2,451.59,143.68,451.59-9.38Zm27.83,0c0,137.72,112,249.75,249.75,249.75s249.76-112,249.76-249.75-112-249.75-249.76-249.75S479.42-147.1,479.42-9.38Z" transform="translate(519.74 626.46)"/><ellipse class="cls-1" cx="851.01" cy="1586.78" rx="717.13" ry="24.66"/><path class="cls-1" d="M-171.14,5.12A254.31,254.31,0,0,1-221-15.57l-55,33.83-81.46-81.43,33.83-55a254.77,254.77,0,0,1-20.69-49.87l-62.78-15V-298.21l62.78-15a255,255,0,0,1,20.69-49.87l-33.83-55L-276-499.54l55,33.84a254.86,254.86,0,0,1,49.87-20.7l15-62.78H-41l15,62.78a254.94,254.94,0,0,1,49.88,20.7l55-33.84,81.46,81.45-33.83,55A255.43,255.43,0,0,1,147.2-313.2l62.78,15V-183l-62.78,15a255.43,255.43,0,0,1-20.69,49.87l33.83,55L78.88,18.26l-55-33.83A254.15,254.15,0,0,1-26,5.12l-15,62.8H-156.15ZM-42.73-11-37-12.57A234.67,234.67,0,0,0,19.12-35.83l5.16-3L75.91-7.06,135-66.16l-31.73-51.63,3-5.16A234.87,234.87,0,0,0,129.5-179l1.56-5.75L190-198.84v-83.59l-58.91-14.05-1.56-5.75a234.66,234.66,0,0,0-23.25-56.08l-3-5.16L135-415.12l-59.1-59.1L24.28-442.46l-5.16-3A235.21,235.21,0,0,0-37-468.71l-5.76-1.55-14-58.92h-83.6l-14,58.92-5.76,1.55a235.31,235.31,0,0,0-56.08,23.27l-5.16,3L-273-474.22l-59.11,59.1,31.75,51.65-3,5.16a234.91,234.91,0,0,0-23.26,56.08l-1.55,5.75-58.92,14.05v83.59l58.92,14.05,1.55,5.75a235.49,235.49,0,0,0,23.26,56.09l3,5.16-31.74,51.63L-273-7.06l51.63-31.75,5.16,3a235,235,0,0,0,56.08,23.26l5.76,1.56,14,58.92h83.6ZM-298.12-240.64c0-110,89.52-199.56,199.55-199.56S101-350.67,101-240.64,11.47-41.08-98.57-41.08-298.12-130.6-298.12-240.64Zm20,0c0,99,80.54,179.55,179.54,179.55S81-141.63,81-240.64.44-420.19-98.57-420.19-278.11-339.64-278.11-240.64Z" transform="translate(519.74 626.46)"/><rect class="cls-1" x="302.96" y="-205.86" width="8.37" height="30.76" rx="0.87" transform="translate(518.21 623.98) rotate(0.46)"/><path class="cls-1" d="M303.83-205.86h6.62a.87.87,0,0,1,.87.87v29a.87.87,0,0,1-.87.87h-6.62A.88.88,0,0,1,303-176v-29a.87.87,0,0,1,.87-.87Z" transform="translate(638.95 127.27) rotate(90.47)"/><rect class="cls-1" x="579.55" y="-622.65" width="8.37" height="30.76" rx="0.87" transform="translate(514.86 621.73) rotate(0.46)"/><path class="cls-1" d="M580.43-622.65H587a.88.88,0,0,1,.88.88v29a.87.87,0,0,1-.87.87h-6.62a.88.88,0,0,1-.88-.88v-29a.87.87,0,0,1,.87-.87Z" transform="translate(501.06 -569.55) rotate(90.47)"/><rect class="cls-1" x="75.62" y="-626.44" width="8.37" height="30.76" rx="0.87" transform="translate(514.81 625.8) rotate(0.46)"/><path class="cls-1" d="M76.5-626.44h6.62a.88.88,0,0,1,.88.88v29a.87.87,0,0,1-.87.87H76.5a.88.88,0,0,1-.88-.88v-29a.87.87,0,0,1,.87-.87Z" transform="translate(-10.83 -69.45) rotate(90.47)"/><path class="cls-1" d="M895.38-500.49h9.42a.88.88,0,0,1,.88.88v39.29a.87.87,0,0,1-.87.87h-9.42a.87.87,0,0,1-.87-.87v-39.29A.87.87,0,0,1,895.38-500.49Z" transform="translate(441.96 436.84) rotate(11.53)"/><path class="cls-1" d="M895.38-500.49h9.42a.87.87,0,0,1,.87.87v39.29a.88.88,0,0,1-.88.88h-9.42a.87.87,0,0,1-.87-.87v-39.29a.88.88,0,0,1,.88-.88Z" transform="translate(1129.4 -831.35) rotate(101.53)"/><path class="cls-1" d="M1101.26-562.86a22.5,22.5,0,0,1-22.47-22.47,22.5,22.5,0,0,1,22.47-22.48,22.51,22.51,0,0,1,22.48,22.48A22.5,22.5,0,0,1,1101.26-562.86Zm0-34.4a11.94,11.94,0,0,0-11.92,11.93,11.94,11.94,0,0,0,11.92,11.92,11.94,11.94,0,0,0,11.92-11.92A11.94,11.94,0,0,0,1101.26-597.26Z" transform="translate(519.74 626.46)"/><path class="cls-1" d="M1158.36-199.18a15.44,15.44,0,0,1-15.42-15.43A15.44,15.44,0,0,1,1158.36-230a15.44,15.44,0,0,1,15.43,15.42A15.45,15.45,0,0,1,1158.36-199.18Zm0-23.61a8.19,8.19,0,0,0-8.18,8.18,8.19,8.19,0,0,0,8.18,8.18,8.19,8.19,0,0,0,8.18-8.18A8.19,8.19,0,0,0,1158.36-222.79Z" transform="translate(519.74 626.46)"/><rect class="cls-1" x="-431.6" y="-422.12" width="7.63" height="28.03" rx="0.87" transform="translate(-408.85 -95.87) rotate(168.45)"/><path class="cls-1" d="M-430.72-422.12h5.88a.87.87,0,0,1,.87.87V-395a.88.88,0,0,1-.88.88h-5.88a.88.88,0,0,1-.88-.88v-26.28a.88.88,0,0,1,.88-.88Z" transform="translate(-222.46 719.05) rotate(78.48)"/><path class="cls-1" d="M-341.1,447.17h5.88a.87.87,0,0,1,.87.87v26.28a.87.87,0,0,1-.87.87h-5.88a.88.88,0,0,1-.88-.88V448A.87.87,0,0,1-341.1,447.17Z" transform="matrix(-0.98, 0.2, -0.2, -0.98, -57.49, 1607.16)"/><path class="cls-1" d="M-341.1,447.17h5.88a.87.87,0,0,1,.87.87v26.28a.87.87,0,0,1-.87.87h-5.88a.88.88,0,0,1-.88-.88V448A.88.88,0,0,1-341.1,447.17Z" transform="translate(701.03 1326.82) rotate(78.47)"/><path class="cls-1" d="M-473,71.11h9.42a.88.88,0,0,1,.88.88v39.29a.88.88,0,0,1-.88.88H-473a.88.88,0,0,1-.88-.88V72A.87.87,0,0,1-473,71.11Z" transform="translate(-423.69 761.13) rotate(-174.1)"/><path class="cls-1" d="M-473,71.11h9.42a.87.87,0,0,1,.87.87v39.29a.88.88,0,0,1-.88.88H-473a.87.87,0,0,1-.87-.87V72a.88.88,0,0,1,.88-.88Z" transform="translate(94.49 1193.28) rotate(95.9)"/><path class="cls-1" d="M-486.51,822.74h12.09a.87.87,0,0,1,.87.87v49.12a.88.88,0,0,1-.88.88h-12.09a.88.88,0,0,1-.88-.88V823.62A.87.87,0,0,1-486.51,822.74Z" transform="translate(-525.8 2268.96) rotate(-174.1)"/><path class="cls-1" d="M-486.51,822.74h12.09a.87.87,0,0,1,.87.87v49.12a.88.88,0,0,1-.88.88h-12.09a.87.87,0,0,1-.87-.87V823.62a.88.88,0,0,1,.88-.88Z" transform="translate(833.56 2039.75) rotate(95.9)"/><path class="cls-1" d="M1124.49,397h12.09a.88.88,0,0,1,.88.88V447a.87.87,0,0,1-.87.87h-12.09a.87.87,0,0,1-.87-.87V397.92a.88.88,0,0,1,.88-.88Z" transform="translate(2731.4 1585.34) rotate(-174.1)"/><path class="cls-1" d="M1124.49,397h12.09a.87.87,0,0,1,.87.87V447a.88.88,0,0,1-.88.88h-12.09a.87.87,0,0,1-.87-.87V397.92a.88.88,0,0,1,.88-.88Z" transform="translate(2186.79 -32.14) rotate(95.9)"/><path class="cls-1" d="M-424.22-558.81a22.51,22.51,0,0,1,22.48-22.48,22.5,22.5,0,0,1,22.47,22.48,22.5,22.5,0,0,1-22.47,22.48A22.51,22.51,0,0,1-424.22-558.81Zm10.56,0a11.93,11.93,0,0,0,11.92,11.92,11.94,11.94,0,0,0,11.92-11.92,11.94,11.94,0,0,0-11.92-11.92A11.93,11.93,0,0,0-413.66-558.81Z" transform="translate(519.74 626.46)"/><path class="cls-1" d="M352.52-490.61A22.5,22.5,0,0,1,375-513.08a22.5,22.5,0,0,1,22.47,22.47A22.5,22.5,0,0,1,375-468.13,22.5,22.5,0,0,1,352.52-490.61Zm10.55,0A11.93,11.93,0,0,0,375-478.69a11.93,11.93,0,0,0,11.92-11.92A11.94,11.94,0,0,0,375-502.53,11.94,11.94,0,0,0,363.07-490.61Z" transform="translate(519.74 626.46)"/><path class="cls-1" d="M-511.7,334.93a22.5,22.5,0,0,1,22.47-22.48,22.51,22.51,0,0,1,22.48,22.48,22.5,22.5,0,0,1-22.48,22.47A22.5,22.5,0,0,1-511.7,334.93Zm10.55,0a11.94,11.94,0,0,0,11.92,11.92,11.94,11.94,0,0,0,11.92-11.92A11.94,11.94,0,0,0-489.23,323,11.94,11.94,0,0,0-501.15,334.93Z" transform="translate(519.74 626.46)"/><path class="cls-1" d="M1131.92,801.26h7.34a.87.87,0,0,1,.87.87v31.66a.88.88,0,0,1-.88.88h-7.34a.87.87,0,0,1-.87-.87V802.13a.87.87,0,0,1,.87-.87Z" transform="translate(2931.48 2018.94) rotate(168.47)"/><path class="cls-1" d="M1131.92,801.26h7.34a.87.87,0,0,1,.87.87v31.66a.88.88,0,0,1-.88.88h-7.34a.87.87,0,0,1-.87-.87V802.13a.88.88,0,0,1,.88-.88Z" transform="translate(2229.84 168.27) rotate(78.47)"/><path class="cls-1" d="M974,620.79a22.48,22.48,0,1,1,22.48,22.48A22.5,22.5,0,0,1,974,620.79Zm10.56,0a11.92,11.92,0,1,0,11.92-11.92A11.93,11.93,0,0,0,984.53,620.79Z" transform="translate(519.74 626.46)"/><path class="cls-1" d="M-519.74-214.61A15.44,15.44,0,0,1-504.31-230a15.44,15.44,0,0,1,15.42,15.42,15.44,15.44,0,0,1-15.42,15.43A15.45,15.45,0,0,1-519.74-214.61Zm7.25,0a8.19,8.19,0,0,0,8.18,8.18,8.19,8.19,0,0,0,8.18-8.18,8.19,8.19,0,0,0-8.18-8.18A8.19,8.19,0,0,0-512.49-214.61Z" transform="translate(519.74 626.46)"/><polygon class="cls-2" points="927.64 1290.02 848.67 1290.02 769.71 1290.02 742.37 1377.03 954.97 1377.03 927.64 1290.02"/><polygon class="cls-3" points="742.37 1377.03 690.74 1561.92 848.67 1561.92 1006.61 1561.92 954.97 1377.03 742.37 1377.03"/><rect class="cls-2" x="667.32" y="1559.4" width="362.19" height="27.37" rx="0.47"/><rect class="cls-3" x="245.65" y="539.37" width="1205.51" height="814.9" rx="13.28"/><rect class="cls-1" x="278.84" y="576.74" width="1139.15" height="740.16" rx="9.19"/><rect class="cls-4" x="278.84" y="816.48" width="1139.15" height="247.54"/><rect class="cls-1" x="299.45" y="1014.28" width="357.96" height="23.78" rx="2.83"/><rect class="cls-1" x="299.45" y="969.92" width="646.68" height="23.78" rx="2.83"/><rect class="cls-1" x="299.45" y="925.56" width="646.68" height="23.78" rx="2.83"/><rect class="cls-1" x="299.45" y="881.2" width="646.68" height="23.78" rx="2.83"/><rect class="cls-1" x="299.45" y="836.84" width="646.68" height="23.78" rx="2.83"/><rect class="cls-1" x="750.34" y="969.92" width="646.68" height="23.78" rx="2.83"/><rect class="cls-1" x="750.34" y="925.56" width="646.68" height="23.78" rx="2.83"/><rect class="cls-1" x="750.34" y="881.2" width="646.68" height="23.78" rx="2.83"/><rect class="cls-1" x="750.34" y="836.84" width="646.68" height="23.78" rx="2.83"/><rect class="cls-4" x="299.45" y="748.98" width="216.79" height="23.78" rx="2.83"/><rect class="cls-4" x="299.45" y="707.66" width="391.65" height="23.78" rx="2.83"/><rect class="cls-4" x="299.45" y="666.35" width="391.65" height="23.78" rx="2.83"/><rect class="cls-4" x="299.45" y="625.04" width="391.65" height="23.78" rx="2.83"/><rect class="cls-4" x="775.5" y="748.98" width="216.79" height="23.78" rx="2.83"/><rect class="cls-4" x="775.5" y="707.66" width="391.65" height="23.78" rx="2.83"/><rect class="cls-4" x="775.5" y="666.35" width="391.65" height="23.78" rx="2.83"/><rect class="cls-4" x="775.5" y="625.04" width="391.65" height="23.78" rx="2.83"/><rect class="cls-4" x="351.64" y="1240.13" width="126.77" height="23.78" rx="2.98"/><rect class="cls-4" x="542.47" y="1240.13" width="126.77" height="23.78" rx="2.98"/><rect class="cls-4" x="733.3" y="1240.13" width="126.77" height="23.78" rx="2.98"/><circle class="cls-5" cx="-104.71" cy="535.84" r="54.33" transform="translate(308.63 626.79) rotate(-22.29)"/><circle class="cls-6" cx="605.85" cy="1160.53" r="54.33"/><circle class="cls-7" cx="796.68" cy="1160.53" r="54.33"/><path class="cls-2" d="M347.93,737l.08,98.62a40,40,0,0,0,40,39.92l82.1-.07L435.24,750.57l-7.15-22.76" transform="translate(519.74 626.46)"/><rect class="cls-3" x="366.69" y="113.22" width="414.28" height="743.19" rx="10.54" transform="translate(1667.79 1595.62) rotate(179.95)"/><path class="cls-4" d="M414.74,149.67l317.63-.26c17.14,0,31,14.52,31,32.47l.5,615.59c0,17.95-13.86,32.51-31,32.52l-317.64.26c-17.13,0-31-14.52-31.05-32.47l-.5-615.59C383.72,164.24,397.6,149.68,414.74,149.67Z" transform="translate(519.74 626.46)"/><path class="cls-2" d="M514,134h0a5.18,5.18,0,0,1,5.18-5.18L628,128.69a5.18,5.18,0,0,1,5.19,5.18h0a5.18,5.18,0,0,1-5.18,5.19l-108.81.08A5.17,5.17,0,0,1,514,134Z" transform="translate(519.74 626.46)"/><rect class="cls-5" x="1133.98" y="976.27" width="121.25" height="121.25" rx="3.38"/><rect class="cls-1" x="924.86" y="976.27" width="191.31" height="23.63" rx="2.79"/><rect class="cls-1" x="924.86" y="1008.81" width="191.31" height="23.63" rx="2.79"/><rect class="cls-1" x="924.86" y="1041.35" width="137.87" height="23.63" rx="2.79"/><rect class="cls-1" x="924.86" y="1073.89" width="101.91" height="23.63" rx="2.79"/><rect class="cls-1" x="1051.35" y="1073.89" width="64.83" height="23.63" rx="2.79"/><rect class="cls-7" x="1133.98" y="1286.51" width="121.25" height="121.25" rx="3.38"/><rect class="cls-1" x="924.86" y="1286.51" width="191.31" height="23.63" rx="2.79"/><rect class="cls-1" x="924.86" y="1319.05" width="191.31" height="23.63" rx="2.79"/><rect class="cls-1" x="924.86" y="1384.13" width="137.87" height="23.63" rx="2.79"/><rect class="cls-1" x="924.86" y="1351.59" width="101.91" height="23.63" rx="2.79"/><rect class="cls-1" x="1051.35" y="1351.59" width="64.83" height="23.63" rx="2.79"/><rect class="cls-6" x="1133.98" y="1131.39" width="121.25" height="121.25" rx="3.38"/><rect class="cls-1" x="924.86" y="1131.39" width="191.31" height="23.63" rx="2.79"/><rect class="cls-1" x="924.86" y="1163.93" width="191.31" height="23.63" rx="2.79"/><rect class="cls-1" x="924.86" y="1196.47" width="137.87" height="23.63" rx="2.79"/><rect class="cls-1" x="924.86" y="1229.01" width="101.91" height="23.63" rx="2.79"/><path class="cls-1" d="M662.35,209.46H484.27A13.25,13.25,0,0,1,471,196.2h0a13.26,13.26,0,0,1,13.26-13.26H662.35a13.26,13.26,0,0,1,13.26,13.26h0A13.26,13.26,0,0,1,662.35,209.46Z" transform="translate(519.74 626.46)"/><path class="cls-1" d="M715.4,258.72H431.22A13.26,13.26,0,0,1,418,245.46h0a13.26,13.26,0,0,1,13.26-13.26H715.4a13.26,13.26,0,0,1,13.26,13.26h0A13.26,13.26,0,0,1,715.4,258.72Z" transform="translate(519.74 626.46)"/><path class="cls-1" d="M715.4,304.19H431.22A13.26,13.26,0,0,1,418,290.93h0a13.26,13.26,0,0,1,13.26-13.26H715.4a13.26,13.26,0,0,1,13.26,13.26h0A13.26,13.26,0,0,1,715.4,304.19Z" transform="translate(519.74 626.46)"/><rect class="cls-8" x="364.95" y="206.96" width="337.84" height="247.04" rx="5.89"/><rect class="cls-5" x="383.89" y="188.01" width="337.84" height="247.04" rx="5.89"/><text class="cls-9" transform="translate(452.01 355.9)"><tspan class="cls-10">p</tspan><tspan class="cls-11" x="66.45" y="0">h</tspan><tspan x="133.46" y="0">p</tspan></text><rect class="cls-12" x="1005.85" y="309.37" width="234.91" height="189.5" rx="3.41"/><rect class="cls-7" x="1024.79" y="294.21" width="234.91" height="189.5" rx="3.41"/><text class="cls-13" transform="translate(1082.96 428.52)"><tspan class="cls-14">J</tspan><tspan x="52.28" y="0">S</tspan></text><rect class="cls-8" x="1246.57" y="572.72" width="386.77" height="249.99" rx="4.17"/><rect class="cls-5" x="1267.04" y="556.35" width="386.77" height="249.99" rx="4.17"/><text class="cls-15" transform="translate(1339.27 726.21)"><tspan class="cls-16">J</tspan><tspan class="cls-17" x="59.31" y="0">a</tspan><tspan class="cls-18" x="119.76" y="0">v</tspan><tspan x="179.63" y="0">a</tspan></text><rect class="cls-12" x="55.26" y="1157.99" width="359.56" height="210.75" rx="4.17"/><rect class="cls-7" x="78" y="1135.25" width="359.56" height="210.75" rx="4.17"/><text class="cls-19" transform="translate(140.36 1294.83)">c++</text><rect class="cls-20" x="109.28" y="642.09" width="445.73" height="233.54" rx="6.29"/><rect class="cls-6" x="128.23" y="626.93" width="445.73" height="233.54" rx="6.29"/><text class="cls-21" transform="translate(207.72 795.98)">Ht<tspan class="cls-22" x="136.01" y="0">m</tspan><tspan class="cls-23" x="250.21" y="0">l</tspan></text></svg>